<svg width="348" height="348" fill="none" xmlns="http://www.w3.org/2000/svg"><path d="M98.848 262.828l-11.609 13.768-3.61-3.134 11.993-13.367c-1.892-1.761-3.346-3.346-5.192-4.984l2.677-2.682c4.57 4.32 8.59 7.666 13.634 11.724l-2.319 2.953c-1.835-1.437-3.723-2.818-5.574-4.278zm-23.262-34.243L56.76 239.576c.678 1.318 1.4 2.865 2.228 4.136l18.863-11.02c-.922-1.662-1.436-2.551-2.266-4.107zm12.084 17.554l-10.197 8.811 5.193-15.102c-.92-1.294-1.34-2.197-2.303-3.386l-18.278 12.401c.812 1.226 1.813 2.36 2.681 3.628l10.99-7.612-5.155 15.218c.897 1.005 1.794 2.545 3.059 3.568l16.908-14.5c-.935-1.003-2.067-1.895-2.898-3.026zm24.811 27.007c2.966 1.616 5.873 3.299 9.12 4.838l1.946-3.222c-4.495-2.322-8.72-4.981-12.502-7.605l-12.407 18.209c4.703 3.116 9.007 5.717 13.841 8.507l2.001-3.215-10.006-5.895 3.379-4.749 6.628 3.984 1.928-3.096c-2.129-1.169-4.345-2.518-6.666-3.943l2.738-3.813zm61.366-67.879c-17.143 0-31.154-14.067-31.154-31.172 0-17.229 14.012-31.223 31.154-31.223 17.26 0 31.138 13.994 31.138 31.223 0 17.181-13.954 31.172-31.138 31.172zm.385-10.309c11.381 0 20.732-9.346 20.732-20.734 0-9.459-6.576-17.687-15.64-19.947-.112-.931-.362-5.254-.362-5.254h-10.458s-.239 4.697-.321 5.631c-8.685 2.633-14.538 10.548-14.538 19.569 0 11.388 9.347 20.735 20.587 20.735zM128.438 56.364V55.34c-.113-5.642 4.21-10.287 9.893-10.742 6.003-.584 11.336 3.831 11.84 9.867v.875a11.008 11.008 0 01-10.027 10.976c-5.834.516-11.197-3.878-11.706-9.953zm3.989-.388c.298 3.88 3.734 6.712 7.473 6.39 3.682-.377 6.438-3.322 6.438-7.027.131-.186 0-.396 0-.643-.322-3.899-3.683-6.636-7.573-6.268-3.695.274-6.475 3.2-6.339 6.911l.001.637zm45.388 5.39c-1.832-.017-2.682-.017-4.477-.017l5.434-11.272 4.935-10.238 4.89.505 2.568 9.733 3.551 13.084c-1.643-.306-2.927-.552-4.474-.642l-1.266-4.1c-3.229-.503-6.151-.657-9.138-.79l-2.023 3.738zm3.624-7.42c2.378.114 4.59.378 6.817.695l-1.171-4.564-1.471-4.697-2.217 4.697-1.958 3.87zm-21.719-9.728l1.931 17.848 4.683-.491-1.833-17.715 7.088-.44-.27-3.974c-7.912.453-11.179.774-19.016 1.944l.53 3.776 6.887-.948zm.742 241.616l-1.586 13.321-6.402-14.609c-1.502-.293-2.436-.679-3.948-.922l-5.021 21.543c1.547.417 3.039.583 4.646.86l2.687-13.23 6.489 14.741c1.473.22 3.135.685 4.852.641l2.399-22.25c-1.26-.071-2.757.133-4.116-.095zm126.548-46.258l-16.008-8.812-2.043 3.688 19.203 10.717 7.401-13.264-3.302-1.765-5.251 9.436zm-24.131 3.225l21.791 7.156c-.514.646-.922 1.264-1.378 1.915-.379.491-.832.987-1.133 1.625l-3.814-1.373-5.949 7.428 2.172 3.404a60.496 60.496 0 01-3.02 3.224l-8.633-14.306-3.185-5.274 3.149-3.799zm2.474 4.989l2.587 4.083 2.36 4.116 3.191-4.116.831-1.024-8.969-3.059zm-22.894 29.117c.935 1.633 1.386 3.522 1.457 5.452a11.072 11.072 0 01-.939 4.454c-1.021 2.028-2.531 3.845-4.626 5.058-5.122 2.987-11.739 1.203-14.842-4.058a6.514 6.514 0 00-.452-1c-.628-1.403-.925-2.948-1.057-4.454.132-3.874 2.021-7.451 5.49-9.463 5.195-2.944 11.904-1.185 14.969 4.011zm-2.466 5.452c0-1.311-.339-2.481-.964-3.614-1.812-3.38-6.117-4.47-9.478-2.545-2.362 1.269-3.57 3.678-3.57 6.159.076 1.133.346 2.403 1.02 3.474.209.38.463.734.757 1.053 2.102 2.515 5.815 3.102 8.671 1.439a6.613 6.613 0 001.921-1.439c1.044-1.269 1.643-2.968 1.643-4.527zm10.517-26.03l9.065 9.769-15.22-4.489c-1.266.963-2.115 1.298-3.23 2.277l13.238 17.792c1.133-.876 2.303-1.947 3.36-2.85l-8.039-10.706 15.366 4.625c1.057-.913 2.569-1.948 3.606-3.25l-15.332-16.204c-.813.89-1.756 2.053-2.814 3.036zM348 174.223c0 2.029-.1 4.069-.321 5.692l-.056.441-.474.239c-7.402 4.405-16.955 6.912-26.547 7.176-.227 1.213-1.265 9.873-1.445 11.091 8.94 2.577 17.606 7.464 23.649 13.709l.246.386v.396c-.473 3.41-1.682 7.983-3.022 10.95l-.151.468-.44.072c-8.383 2.411-18.258 2.322-27.393.061-.44 1.134-3.813 9.18-4.154 10.35 8.005 5.06 15.087 12.017 19.07 19.442l.208.417-.132.434c-1.246 2.954-3.587 7.231-5.683 9.798l-.227.388h-.529c-8.554.098-18.112-2.442-26.455-7.087-.755.995-6.324 8.357-7.08 9.344 6.573 6.772 11.552 15.35 13.576 23.814l.132.441-.25.306c-1.908 2.59-5.414 6.023-7.962 8.081l-.303.258-.628-.123c-8.227-2.194-16.933-7.174-23.692-13.71-1.001.756-7.912 6.149-8.934 6.914 4.419 8.096 7.101 17.408 7.101 25.823v1.171l-.509.288c-2.549 2.054-6.78 4.502-9.801 5.739l-.302.128-.504-.165c-7.408-4.314-14.507-11.35-19.36-19.418-1.17.515-9.573 4.111-10.724 4.617a63.467 63.467 0 011.964 13.839c0 4.692-.813 9.383-1.964 13.622l-.057.42-.453.245c-2.811 1.17-7.553 2.345-10.858 2.92l-.513.071-.279-.353c-6.38-6.071-11.271-14.703-13.841-23.723-1.133.084-9.837 1.264-11.064 1.519-.151 9.46-2.75 19.05-7.25 26.484l-.246.391-.509.067c-3.021.459-7.869.459-11.159 0l-.41-.067-.29-.391c-4.36-7.435-6.966-17.024-7.174-26.484-1.303-.126-10.474-1.435-11.746-1.519-2.511 8.963-7.438 17.548-13.652 23.692l-.333.314-.517-.074c-3.397-.501-7.873-1.813-10.874-3.053l-.36-.176-.15-.383c-1.265-4.224-1.922-8.962-1.922-13.659 0-4.602.658-9.209 1.827-13.703-1.169-.505-9.101-3.72-10.253-4.234-4.904 8.202-11.991 15.33-19.468 19.489l-.397.222-.473-.128c-3.096-1.383-7.175-3.723-9.819-5.702l-.32-.322v-.89c0-8.521 2.596-17.899 7.042-26.103a1873.276 1873.276 0 00-9.402-7.146c-6.779 6.532-15.408 11.454-23.754 13.594l-.43.131-.457-.299c-2.548-2.058-5.83-5.371-7.893-7.971l-.28-.453.13-.439c2.213-8.414 7.212-16.998 13.708-23.668-.745-1.008-6.345-8.265-7.137-9.354-8.253 4.624-17.902 7.295-26.456 7.08h-.453l-.302-.293c-2-2.648-4.388-6.877-5.683-9.876l-.188-.448.188-.396c4.311-7.542 11.349-14.504 19.392-19.321-.523-1.238-3.946-9.343-4.531-10.484-9.138 2.274-19.07 2.341-27.43 0l-.403-.128-.244-.379c-1.134-2.816-2.374-7.56-2.884-10.896l-.09-.527.298-.391c6.085-6.198 14.628-11.102 23.773-13.81-.101-1.281-1.44-10.493-1.573-11.767-9.55-.13-19.147-2.592-26.605-7.029l-.378-.246-.038-.514C.057 177.907 0 175.883 0 173.829c0-2.001.057-3.965.264-5.64l.038-.515.378-.202c7.46-4.399 17.056-6.947 26.605-7.089.194-1.261 1.326-10.22 1.473-11.428-9.045-2.591-17.674-7.543-23.805-13.716l-.251-.303.086-.48c.391-3.441 1.689-8.048 2.974-10.903l.136-.417.448-.128c8.257-2.435 18.24-2.364 27.417-.113.509-1.118 3.857-9.195 4.36-10.407-8.099-4.901-15.207-11.876-19.436-19.405l-.219-.476.219-.453c1.33-3.02 3.713-7.114 5.596-9.68l.302-.389h.515c8.662-.122 18.216 2.521 26.454 7.091.77-.925 6.397-8.524 7.157-9.535-6.538-6.815-11.485-15.349-13.619-23.808l-.095-.362.173-.374c2.097-2.624 5.568-6.032 8.101-8.034l.412-.25.377.075c8.516 2.177 17.093 7.242 23.778 13.74.978-.774 7.666-5.933 8.663-6.684-4.607-8.057-7.176-17.447-7.176-25.792V26.9l.419-.298c2.507-1.96 6.755-4.395 9.786-5.626l.316-.204.505.223c7.459 4.214 14.471 11.271 19.375 19.347 1.171-.445 9.875-4.22 11.063-4.697-1.132-4.502-1.844-9.165-1.772-13.786 0-4.806.584-9.38 1.85-13.6l.06-.522.449-.119c2.813-1.176 7.495-2.436 10.782-2.94l.529-.068.383.331c6.206 6.037 11.152 14.678 13.766 23.793 1.277-.128 10.416-1.28 11.644-1.5.194-9.39 2.762-18.975 7.251-26.424l.188-.391.466-.128c3.278-.387 8.106-.387 11.278 0l.417.128.264.391c4.513 7.448 7.12 17.034 7.12 26.339 1.377.305 10.309 1.457 11.58 1.585 2.677-9.115 7.585-17.69 13.836-23.75l.284-.306.415.127c3.399.377 8.007 1.637 10.966 2.932l.363.14.152.515c1.269 4.182 1.886 8.736 1.886 13.467-.074 4.668-.755 9.369-1.886 13.881 1.132.464 9.818 4.098 11.027 4.603 4.815-8.076 11.745-15.077 19.278-19.348l.433-.222.454.204c2.985 1.268 7.157 3.667 9.726 5.687l.381.237v1.17c0 8.557-2.647 17.907-7.121 25.876.963.75 8.138 6.362 9.214 7.189 6.756-6.566 15.35-11.588 23.81-13.67l.378-.207.378.396c2.548 1.891 5.986 5.464 7.926 8.028l.363.378-.157.435c-2.148 8.462-7.251 17.048-13.742 23.77.756 1.034 6.156 8.147 6.988 9.171 8.416-4.527 17.937-7.118 26.566-6.962h.397l.278.381c2.1 2.677 4.5 6.831 5.669 9.681l.283.548-.283.415c-4.286 7.473-11.329 14.387-19.41 19.319.487 1.226 3.776 9.336 4.399 10.471 9.064-2.281 19.032-2.334 27.281 0l.495.098.189.476c1.152 2.869 2.488 7.53 2.926 10.957l.071.419-.335.335c-6.06 6.282-14.688 11.197-23.762 13.759.18 1.251 1.311 10.101 1.519 11.361 9.554.203 19.071 2.757 26.472 7.141l.475.279.056.447c.219 1.618.318 3.576.318 5.662zM86.537 72.709l14.294 15.921c2.001 2.148 4.199 1.884 7.088-.377 18.064-14.165 41.232-22.543 65.929-22.543 24.718 0 47.905 8.345 66.145 22.543 2.852 2.105 4.986 2.526 7.081.377l14.299-15.92c1.621-1.761 1.621-4.187-1.477-6.784-23.982-18.667-53.57-30.185-86.104-30.185-32.344 0-62.362 11.519-85.91 30.27-3.082 2.511-2.94 4.938-1.345 6.698zm.967 66.954c-1.571-1.019-3.251-2.186-4.626-1.576-1.118.34-1.93 1.51-2.516 3.412-6.704 23.001-6.704 42.499 0 65.199.453 1.477.963 2.949 2.303 3.322 1.105.457 2.724 0 4.839-1.458l44.256-30.144c1.641-1.104 2.643-2.675 2.643-4.252 0-1.714-1.002-3.219-2.643-4.375l-44.256-30.128zm9.683-26.376c.208 1.614 2.04 2.435 3.644 3.19l48.224 23.423c1.917.915 3.702.915 5.155.16 1.36-.888 2.234-2.431 2.362-4.484l3.89-53.49c.213-2.58-.153-4.097-1.077-4.89-1.02-.877-2.531-.633-3.985-.363-23.112 5.557-39.954 15.322-56.553 32.636-1.34 1.514-1.963 2.789-1.66 3.818zm.698 122.305c0 .918.623 2.059 1.794 3.273 16.605 17.464 33.423 27.181 56.515 32.599 1.473.45 2.928.672 3.948-.13 1.044-.778 1.34-2.384 1.17-4.91 0-.078-3.928-53.599-3.928-53.599-.17-2.029-.94-3.577-2.36-4.393-1.435-.846-3.231-.846-5.155.031l-48.17 23.444c-1.681.785-3.502 1.668-3.757 3.246 0 .1-.057.304-.057.439zm75.962-26.954c19.072 0 34.57-15.479 34.57-34.542 0-19.063-15.497-34.56-34.57-34.629-19.063 0-34.554 15.566-34.554 34.629 0 19.063 15.491 34.542 34.554 34.542zm14.617 61.918c.812.641 2.151.829 4.21.316 23.036-5.529 39.937-15.289 56.401-32.564.984-1.136 2.055-2.307 1.734-3.607-.299-1.246-1.355-2.374-3.602-3.431l-48.302-23.435c-1.831-.865-3.607-.865-5.078-.094-1.423.897-2.284 2.416-2.416 4.535l-3.909 53.455c-.039 1.751-.246 3.748.962 4.825zm72.017-62.306c1.43.931 3.096 2.057 4.608 1.535 1.019-.311 1.907-1.436 2.472-3.46 6.761-22.915 6.761-42.491 0-65.132-.415-1.422-1.076-2.889-2.265-3.423-1.209-.429-2.718.066-4.89 1.535l-44.279 30.107c-1.719 1.152-2.588 2.724-2.588 4.348 0 1.614.869 3.186 2.588 4.318l44.354 30.172zm-9.762-95.817c.056-.917-.509-2.072-1.794-3.337-16.45-17.398-33.346-27.131-56.521-32.643-1.297-.336-2.808-.643-3.809.244-1.04.831-1.339 2.436-1.134 4.837l3.819 53.608c.129 2.029 1.039 3.639 2.393 4.455 1.492.845 3.266.689 5.118-.204l48.281-23.297c1.549-.752 3.304-1.573 3.644-3.221.003-.103.059-.235.003-.442zM44.562 208.105l20.545-5.969c1.926-.564 3.512-2.586 3.36-5.097-7.378-38.27 2.001-69.295 24.434-94.165 2.265-1.614 2.51-4.937.34-7.207L78.305 80.652c-1.453-1.66-4.094-1.66-6.353.648-28.638 30.132-43.095 76.375-32.49 123.65.586 2.267 2.38 3.934 5.1 3.155zm255.458 10.998l-20.6-7.035c-1.077-.4-3.889-.4-5.363 3.225-16.636 39.893-55.364 67.193-100.21 67.193-44.9 0-84.347-27.926-100.263-67.817a4.175 4.175 0 00-5.174-2.602l-20.487 7.034c-2.23.8-3.564 2.777-2.4 5.621 20.13 51.348 70.169 87.599 128.324 87.599 58.14 0 108.404-36.5 128.595-87.817 1.053-2.682-.213-4.6-2.422-5.401zm-23.809-138.01c-2.021-2.47-5.363-2.102-6.326-.379l-14.893 14.953c-2.177 2.27-1.97 5.594.297 7.207 22.47 24.871 31.855 55.83 24.493 94.165-.171 2.512 1.415 4.532 3.379 5.099l20.583 5.967c2.738.779 4.494-.887 5.078-3.234 10.591-47.196-3.911-93.595-32.611-123.779zM348 174.222c0 2.029-.1 4.069-.321 5.692l-.056.441-.474.239c-7.402 4.405-16.955 6.912-26.547 7.176-.227 1.213-1.265 9.873-1.445 11.091 8.94 2.577 17.606 7.464 23.649 13.709l.246.386v.396c-.473 3.41-1.682 7.983-3.022 10.95l-.151.468-.44.072c-8.383 2.411-18.258 2.322-27.393.061-.44 1.134-3.813 9.18-4.154 10.35 8.005 5.06 15.087 12.017 19.07 19.442l.208.417-.132.434c-1.246 2.954-3.587 7.231-5.683 9.798l-.227.388h-.529c-8.554.098-18.112-2.442-26.455-7.087-.755.995-6.324 8.357-7.08 9.344 6.573 6.772 11.552 15.35 13.576 23.814l.132.441-.25.306c-1.908 2.59-5.414 6.023-7.962 8.081l-.303.258-.628-.123c-8.227-2.194-16.933-7.174-23.692-13.71-1.001.756-7.912 6.149-8.934 6.914 4.419 8.096 7.101 17.408 7.101 25.823v1.171l-.509.288c-2.549 2.054-6.78 4.502-9.801 5.739l-.302.128-.504-.165c-7.408-4.314-14.507-11.35-19.36-19.418-1.17.515-9.573 4.111-10.724 4.617a63.467 63.467 0 011.964 13.839c0 4.692-.813 9.383-1.964 13.622l-.057.42-.453.245c-2.811 1.17-7.553 2.345-10.858 2.92l-.513.071-.279-.353c-6.38-6.071-11.271-14.703-13.841-23.723-1.133.084-9.837 1.264-11.064 1.519-.151 9.46-2.75 19.05-7.25 26.484l-.246.391-.509.067c-3.021.459-7.869.459-11.159 0l-.41-.067-.29-.391c-4.36-7.435-6.966-17.024-7.174-26.484-1.303-.126-10.474-1.435-11.746-1.519-2.511 8.963-7.438 17.548-13.652 23.692l-.333.314-.517-.074c-3.397-.501-7.873-1.813-10.874-3.053l-.36-.176-.15-.383c-1.265-4.224-1.922-8.962-1.922-13.659 0-4.602.658-9.209 1.827-13.703-1.169-.505-9.101-3.72-10.253-4.234-4.904 8.202-11.991 15.33-19.468 19.489l-.397.222-.473-.128c-3.096-1.383-7.175-3.723-9.819-5.702l-.32-.322v-.89c0-8.521 2.596-17.899 7.042-26.103a1873.276 1873.276 0 00-9.402-7.146c-6.779 6.532-15.408 11.454-23.754 13.594l-.43.131-.457-.299c-2.548-2.058-5.83-5.371-7.893-7.971l-.28-.453.13-.439c2.213-8.414 7.212-16.998 13.708-23.668-.745-1.008-6.345-8.265-7.137-9.354-8.253 4.624-17.902 7.295-26.456 7.08h-.453l-.302-.293c-2-2.648-4.388-6.877-5.683-9.876l-.188-.448.188-.396c4.311-7.542 11.349-14.504 19.392-19.321-.523-1.238-3.946-9.343-4.531-10.484-9.138 2.274-19.07 2.341-27.43 0l-.403-.128-.244-.379c-1.134-2.816-2.374-7.56-2.884-10.896l-.09-.527.298-.391c6.085-6.198 14.628-11.102 23.773-13.81-.101-1.281-1.44-10.493-1.573-11.767-9.55-.13-19.147-2.592-26.605-7.029l-.378-.246-.038-.514C.057 177.907 0 175.883 0 173.829c0-2.001.057-3.965.264-5.64l.038-.515.378-.202c7.46-4.399 17.056-6.947 26.605-7.089.194-1.261 1.326-10.22 1.473-11.428-9.045-2.591-17.674-7.543-23.805-13.716l-.251-.303.086-.48c.391-3.441 1.689-8.048 2.974-10.903l.136-.417.448-.128c8.257-2.435 18.24-2.364 27.417-.113.509-1.118 3.857-9.195 4.36-10.407-8.099-4.901-15.207-11.876-19.436-19.405l-.219-.476.219-.453c1.33-3.02 3.713-7.114 5.596-9.68l.302-.389h.515c8.662-.122 18.216 2.521 26.454 7.091.77-.925 6.397-8.524 7.157-9.535-6.538-6.815-11.485-15.349-13.619-23.808l-.095-.362.173-.374c2.097-2.624 5.568-6.032 8.101-8.034l.412-.25.377.075c8.516 2.177 17.093 7.242 23.778 13.74.978-.774 7.666-5.933 8.663-6.684-4.607-8.057-7.176-17.447-7.176-25.792V26.9l.419-.298c2.507-1.96 6.755-4.395 9.786-5.626l.316-.204.505.223c7.459 4.214 14.471 11.271 19.375 19.347 1.171-.445 9.875-4.22 11.063-4.697-1.132-4.502-1.844-9.165-1.772-13.786 0-4.806.584-9.38 1.85-13.6l.06-.522.449-.119c2.813-1.176 7.495-2.436 10.782-2.94l.529-.068.383.331c6.206 6.037 11.152 14.678 13.766 23.793 1.277-.128 10.416-1.28 11.644-1.5.194-9.39 2.762-18.975 7.251-26.424l.188-.391.466-.128c3.278-.387 8.106-.387 11.278 0l.417.128.264.391c4.513 7.448 7.12 17.034 7.12 26.339 1.377.305 10.309 1.457 11.58 1.585 2.677-9.115 7.585-17.69 13.836-23.75l.284-.306.415.127c3.399.377 8.007 1.637 10.966 2.932l.363.14.152.515c1.269 4.182 1.886 8.736 1.886 13.467-.074 4.668-.755 9.369-1.886 13.881 1.132.464 9.818 4.098 11.027 4.603 4.815-8.076 11.745-15.077 19.278-19.348l.433-.222.454.204c2.985 1.268 7.157 3.667 9.726 5.687l.381.237v1.17c0 8.557-2.647 17.907-7.121 25.876.963.75 8.138 6.362 9.214 7.189 6.756-6.566 15.35-11.588 23.81-13.67l.378-.207.378.396c2.548 1.891 5.986 5.464 7.926 8.028l.363.378-.157.435c-2.148 8.462-7.251 17.048-13.742 23.77.756 1.034 6.156 8.147 6.988 9.171 8.416-4.527 17.937-7.118 26.566-6.962h.397l.278.381c2.1 2.677 4.5 6.831 5.669 9.681l.283.548-.283.415c-4.286 7.473-11.329 14.387-19.41 19.319.487 1.226 3.776 9.336 4.399 10.471 9.064-2.281 19.032-2.334 27.281 0l.495.098.189.476c1.152 2.869 2.488 7.53 2.926 10.957l.071.419-.335.335c-6.06 6.282-14.688 11.197-23.762 13.759.18 1.251 1.311 10.101 1.519 11.361 9.554.203 19.071 2.757 26.472 7.141l.475.279.056.447c.219 1.618.318 3.576.318 5.662zM86.537 72.709l14.294 15.921c2.001 2.148 4.199 1.884 7.088-.377 18.064-14.165 41.232-22.543 65.929-22.543 24.718 0 47.905 8.345 66.145 22.543 2.852 2.105 4.986 2.526 7.081.377l14.299-15.92c1.621-1.761 1.621-4.187-1.477-6.784-23.982-18.667-53.57-30.185-86.104-30.185-32.344 0-62.362 11.519-85.91 30.27-3.082 2.511-2.94 4.938-1.345 6.698zm.967 66.954c-1.571-1.019-3.251-2.186-4.626-1.576-1.118.34-1.93 1.51-2.516 3.412-6.704 23.001-6.704 42.499 0 65.199.453 1.477.963 2.949 2.303 3.322 1.105.457 2.724 0 4.839-1.458l44.256-30.144c1.641-1.104 2.643-2.675 2.643-4.252 0-1.714-1.002-3.219-2.643-4.375l-44.256-30.128zm9.683-26.376c.208 1.614 2.04 2.435 3.644 3.19l48.224 23.423c1.917.915 3.702.915 5.155.16 1.36-.888 2.234-2.431 2.362-4.484l3.89-53.49c.213-2.58-.153-4.097-1.077-4.89-1.02-.877-2.531-.633-3.985-.363-23.112 5.557-39.954 15.322-56.553 32.636-1.34 1.514-1.963 2.789-1.66 3.818zm.698 122.305c0 .918.623 2.059 1.794 3.273 16.605 17.464 33.423 27.181 56.515 32.599 1.473.45 2.928.672 3.948-.13 1.044-.778 1.34-2.384 1.17-4.91 0-.078-3.928-53.599-3.928-53.599-.17-2.029-.94-3.577-2.36-4.393-1.435-.846-3.231-.846-5.155.031l-48.17 23.444c-1.681.785-3.502 1.668-3.757 3.246 0 .1-.057.304-.057.439zm75.962-26.954c19.072 0 34.57-15.479 34.57-34.542 0-19.063-15.497-34.56-34.57-34.629-19.063 0-34.554 15.566-34.554 34.629 0 19.063 15.491 34.542 34.554 34.542zm14.617 61.918c.812.641 2.151.829 4.21.316 23.036-5.529 39.937-15.289 56.401-32.564.984-1.136 2.055-2.307 1.734-3.607-.299-1.246-1.355-2.374-3.602-3.431l-48.302-23.435c-1.831-.865-3.607-.865-5.078-.094-1.423.897-2.284 2.416-2.416 4.535l-3.909 53.455c-.039 1.751-.246 3.748.962 4.825zm72.017-62.306c1.43.931 3.096 2.057 4.608 1.535 1.019-.311 1.907-1.436 2.472-3.46 6.761-22.915 6.761-42.491 0-65.132-.415-1.422-1.076-2.889-2.265-3.423-1.209-.429-2.718.066-4.89 1.535l-44.279 30.107c-1.719 1.152-2.588 2.724-2.588 4.348 0 1.614.869 3.186 2.588 4.318l44.354 30.172zm-9.762-95.817c.056-.917-.509-2.072-1.794-3.337-16.45-17.398-33.346-27.131-56.521-32.643-1.297-.336-2.808-.643-3.809.244-1.04.831-1.339 2.436-1.134 4.837l3.819 53.608c.129 2.029 1.039 3.639 2.393 4.455 1.492.845 3.266.689 5.118-.204l48.281-23.297c1.549-.752 3.304-1.573 3.644-3.221.003-.103.059-.235.003-.442zM44.562 208.105l20.545-5.969c1.926-.564 3.512-2.586 3.36-5.097-7.378-38.27 2.001-69.295 24.434-94.165 2.265-1.614 2.51-4.937.34-7.207L78.305 80.652c-1.453-1.66-4.094-1.66-6.353.648-28.638 30.132-43.095 76.375-32.49 123.65.586 2.267 2.38 3.934 5.1 3.155zm255.458 10.998l-20.6-7.035c-1.077-.4-3.889-.4-5.363 3.225-16.636 39.893-55.364 67.193-100.21 67.193-44.9 0-84.347-27.926-100.263-67.817a4.175 4.175 0 00-5.174-2.602l-20.487 7.034c-2.23.8-3.564 2.777-2.4 5.621 20.13 51.348 70.169 87.599 128.324 87.599 58.14 0 108.404-36.5 128.595-87.817 1.053-2.682-.213-4.6-2.422-5.401zm-23.809-138.01c-2.021-2.47-5.363-2.102-6.326-.379l-14.893 14.953c-2.177 2.27-1.97 5.594.297 7.207 22.47 24.871 31.855 55.83 24.493 94.165-.171 2.512 1.415 4.532 3.379 5.099l20.583 5.967c2.738.779 4.494-.887 5.078-3.234 10.591-47.196-3.911-93.595-32.611-123.779zM348 174.222c0 2.029-.1 4.069-.321 5.692l-.056.441-.474.239c-7.402 4.405-16.955 6.912-26.547 7.176-.227 1.213-1.265 9.873-1.445 11.091 8.94 2.577 17.606 7.464 23.649 13.709l.246.386v.396c-.473 3.41-1.682 7.983-3.022 10.95l-.151.468-.44.072c-8.383 2.411-18.258 2.322-27.393.061-.44 1.134-3.813 9.18-4.154 10.35 8.005 5.06 15.087 12.017 19.07 19.442l.208.417-.132.434c-1.246 2.954-3.587 7.231-5.683 9.798l-.227.388h-.529c-8.554.098-18.112-2.442-26.455-7.087-.755.995-6.324 8.357-7.08 9.344 6.573 6.772 11.552 15.35 13.576 23.814l.132.441-.25.306c-1.908 2.59-5.414 6.023-7.962 8.081l-.303.258-.628-.123c-8.227-2.194-16.933-7.174-23.692-13.71-1.001.756-7.912 6.149-8.934 6.914 4.419 8.096 7.101 17.408 7.101 25.823v1.171l-.509.288c-2.549 2.054-6.78 4.502-9.801 5.739l-.302.128-.504-.165c-7.408-4.314-14.507-11.35-19.36-19.418-1.17.515-9.573 4.111-10.724 4.617a63.467 63.467 0 011.964 13.839c0 4.692-.813 9.383-1.964 13.622l-.057.42-.453.245c-2.811 1.17-7.553 2.345-10.858 2.92l-.513.071-.279-.353c-6.38-6.071-11.271-14.703-13.841-23.723-1.133.084-9.837 1.264-11.064 1.519-.151 9.46-2.75 19.05-7.25 26.484l-.246.391-.509.067c-3.021.459-7.869.459-11.159 0l-.41-.067-.29-.391c-4.36-7.435-6.966-17.024-7.174-26.484-1.303-.126-10.474-1.435-11.746-1.519-2.511 8.963-7.438 17.548-13.652 23.692l-.333.314-.517-.074c-3.397-.501-7.873-1.813-10.874-3.053l-.36-.176-.15-.383c-1.265-4.224-1.922-8.962-1.922-13.659 0-4.602.658-9.209 1.827-13.703-1.169-.505-9.101-3.72-10.253-4.234-4.904 8.202-11.991 15.33-19.468 19.489l-.397.222-.473-.128c-3.096-1.383-7.175-3.723-9.819-5.702l-.32-.322v-.89c0-8.521 2.596-17.899 7.042-26.103a1873.276 1873.276 0 00-9.402-7.146c-6.779 6.532-15.408 11.454-23.754 13.594l-.43.131-.457-.299c-2.548-2.058-5.83-5.371-7.893-7.971l-.28-.453.13-.439c2.213-8.414 7.212-16.998 13.708-23.668-.745-1.008-6.345-8.265-7.137-9.354-8.253 4.624-17.902 7.295-26.456 7.08h-.453l-.302-.293c-2-2.648-4.388-6.877-5.683-9.876l-.188-.448.188-.396c4.311-7.542 11.349-14.504 19.392-19.321-.523-1.238-3.946-9.343-4.531-10.484-9.138 2.274-19.07 2.341-27.43 0l-.403-.128-.244-.379c-1.134-2.816-2.374-7.56-2.884-10.896l-.09-.527.298-.391c6.085-6.198 14.628-11.102 23.773-13.81-.101-1.281-1.44-10.493-1.573-11.767-9.55-.13-19.147-2.592-26.605-7.029l-.378-.246-.038-.514C.057 177.907 0 175.883 0 173.829c0-2.001.057-3.965.264-5.64l.038-.515.378-.202c7.46-4.399 17.056-6.947 26.605-7.089.194-1.261 1.326-10.22 1.473-11.428-9.045-2.591-17.674-7.543-23.805-13.716l-.251-.303.086-.48c.391-3.441 1.689-8.048 2.974-10.903l.136-.417.448-.128c8.257-2.435 18.24-2.364 27.417-.113.509-1.118 3.857-9.195 4.36-10.407-8.099-4.901-15.207-11.876-19.436-19.405l-.219-.476.219-.453c1.33-3.02 3.713-7.114 5.596-9.68l.302-.389h.515c8.662-.122 18.216 2.521 26.454 7.091.77-.925 6.397-8.524 7.157-9.535-6.538-6.815-11.485-15.349-13.619-23.808l-.095-.362.173-.374c2.097-2.624 5.568-6.032 8.101-8.034l.412-.25.377.075c8.516 2.177 17.093 7.242 23.778 13.74.978-.774 7.666-5.933 8.663-6.684-4.607-8.057-7.176-17.447-7.176-25.792V26.9l.419-.298c2.507-1.96 6.755-4.395 9.786-5.626l.316-.204.505.223c7.459 4.214 14.471 11.271 19.375 19.347 1.171-.445 9.875-4.22 11.063-4.697-1.132-4.502-1.844-9.165-1.772-13.786 0-4.806.584-9.38 1.85-13.6l.06-.522.449-.119c2.813-1.176 7.495-2.436 10.782-2.94l.529-.068.383.331c6.206 6.037 11.152 14.678 13.766 23.793 1.277-.128 10.416-1.28 11.644-1.5.194-9.39 2.762-18.975 7.251-26.424l.188-.391.466-.128c3.278-.387 8.106-.387 11.278 0l.417.128.264.391c4.513 7.448 7.12 17.034 7.12 26.339 1.377.305 10.309 1.457 11.58 1.585 2.677-9.115 7.585-17.69 13.836-23.75l.284-.306.415.127c3.399.377 8.007 1.637 10.966 2.932l.363.14.152.515c1.269 4.182 1.886 8.736 1.886 13.467-.074 4.668-.755 9.369-1.886 13.881 1.132.464 9.818 4.098 11.027 4.603 4.815-8.076 11.745-15.077 19.278-19.348l.433-.222.454.204c2.985 1.268 7.157 3.667 9.726 5.687l.381.237v1.17c0 8.557-2.647 17.907-7.121 25.876.963.75 8.138 6.362 9.214 7.189 6.756-6.566 15.35-11.588 23.81-13.67l.378-.207.378.396c2.548 1.891 5.986 5.464 7.926 8.028l.363.378-.157.435c-2.148 8.462-7.251 17.048-13.742 23.77.756 1.034 6.156 8.147 6.988 9.171 8.416-4.527 17.937-7.118 26.566-6.962h.397l.278.381c2.1 2.677 4.5 6.831 5.669 9.681l.283.548-.283.415c-4.286 7.473-11.329 14.387-19.41 19.319.487 1.226 3.776 9.336 4.399 10.471 9.064-2.281 19.032-2.334 27.281 0l.495.098.189.476c1.152 2.869 2.488 7.53 2.926 10.957l.071.419-.335.335c-6.06 6.282-14.688 11.197-23.762 13.759.18 1.251 1.311 10.101 1.519 11.361 9.554.203 19.071 2.757 26.472 7.141l.475.279.056.447c.219 1.618.318 3.576.318 5.662zM86.537 72.709l14.294 15.921c2.001 2.148 4.199 1.884 7.088-.377 18.064-14.165 41.232-22.543 65.929-22.543 24.718 0 47.905 8.345 66.145 22.543 2.852 2.105 4.986 2.526 7.081.377l14.299-15.92c1.621-1.761 1.621-4.187-1.477-6.784-23.982-18.667-53.57-30.185-86.104-30.185-32.344 0-62.362 11.519-85.91 30.27-3.082 2.511-2.94 4.938-1.345 6.698zm.967 66.954c-1.571-1.019-3.251-2.186-4.626-1.576-1.118.34-1.93 1.51-2.516 3.412-6.704 23.001-6.704 42.499 0 65.199.453 1.477.963 2.949 2.303 3.322 1.105.457 2.724 0 4.839-1.458l44.256-30.144c1.641-1.104 2.643-2.675 2.643-4.252 0-1.714-1.002-3.219-2.643-4.375l-44.256-30.128zm9.683-26.376c.208 1.614 2.04 2.435 3.644 3.19l48.224 23.423c1.917.915 3.702.915 5.155.16 1.36-.888 2.234-2.431 2.362-4.484l3.89-53.49c.213-2.58-.153-4.097-1.077-4.89-1.02-.877-2.531-.633-3.985-.363-23.112 5.557-39.954 15.322-56.553 32.636-1.34 1.514-1.963 2.789-1.66 3.818zm.698 122.305c0 .918.623 2.059 1.794 3.273 16.605 17.464 33.423 27.181 56.515 32.599 1.473.45 2.928.672 3.948-.13 1.044-.778 1.34-2.384 1.17-4.91 0-.078-3.928-53.599-3.928-53.599-.17-2.029-.94-3.577-2.36-4.393-1.435-.846-3.231-.846-5.155.031l-48.17 23.444c-1.681.785-3.502 1.668-3.757 3.246 0 .1-.057.304-.057.439zm75.962-26.954c19.072 0 34.57-15.479 34.57-34.542 0-19.063-15.497-34.56-34.57-34.629-19.063 0-34.554 15.566-34.554 34.629 0 19.063 15.491 34.542 34.554 34.542zm14.617 61.918c.812.641 2.151.829 4.21.316 23.036-5.529 39.937-15.289 56.401-32.564.984-1.136 2.055-2.307 1.734-3.607-.299-1.246-1.355-2.374-3.602-3.431l-48.302-23.435c-1.831-.865-3.607-.865-5.078-.094-1.423.897-2.284 2.416-2.416 4.535l-3.909 53.455c-.039 1.751-.246 3.748.962 4.825zm72.017-62.306c1.43.931 3.096 2.057 4.608 1.535 1.019-.311 1.907-1.436 2.472-3.46 6.761-22.915 6.761-42.491 0-65.132-.415-1.422-1.076-2.889-2.265-3.423-1.209-.429-2.718.066-4.89 1.535l-44.279 30.107c-1.719 1.152-2.588 2.724-2.588 4.348 0 1.614.869 3.186 2.588 4.318l44.354 30.172zm-9.762-95.817c.056-.917-.509-2.072-1.794-3.337-16.45-17.398-33.346-27.131-56.521-32.643-1.297-.336-2.808-.643-3.809.244-1.04.831-1.339 2.436-1.134 4.837l3.819 53.608c.129 2.029 1.039 3.639 2.393 4.455 1.492.845 3.266.689 5.118-.204l48.281-23.297c1.549-.752 3.304-1.573 3.644-3.221.003-.103.059-.235.003-.442zM44.562 208.105l20.545-5.969c1.926-.564 3.512-2.586 3.36-5.097-7.378-38.27 2.001-69.295 24.434-94.165 2.265-1.614 2.51-4.937.34-7.207L78.305 80.652c-1.453-1.66-4.094-1.66-6.353.648-28.638 30.132-43.095 76.375-32.49 123.65.586 2.267 2.38 3.934 5.1 3.155zm255.458 10.998l-20.6-7.035c-1.077-.4-3.889-.4-5.363 3.225-16.636 39.893-55.364 67.193-100.21 67.193-44.9 0-84.347-27.926-100.263-67.817a4.175 4.175 0 00-5.174-2.602l-20.487 7.034c-2.23.8-3.564 2.777-2.4 5.621 20.13 51.348 70.169 87.599 128.324 87.599 58.14 0 108.404-36.5 128.595-87.817 1.053-2.682-.213-4.6-2.422-5.401zm-23.809-138.01c-2.021-2.47-5.363-2.102-6.326-.379l-14.893 14.953c-2.177 2.27-1.97 5.594.297 7.207 22.47 24.871 31.855 55.83 24.493 94.165-.171 2.512 1.415 4.532 3.379 5.099l20.583 5.967c2.738.779 4.494-.887 5.078-3.234 10.591-47.196-3.911-93.595-32.611-123.779zM348 174.222c0 2.029-.1 4.069-.321 5.692l-.056.441-.474.239c-7.402 4.405-16.955 6.912-26.547 7.176-.227 1.213-1.265 9.873-1.445 11.091 8.94 2.577 17.606 7.464 23.649 13.709l.246.386v.396c-.473 3.41-1.682 7.983-3.022 10.95l-.151.468-.44.072c-8.383 2.411-18.258 2.322-27.393.061-.44 1.134-3.813 9.18-4.154 10.35 8.005 5.06 15.087 12.017 19.07 19.442l.208.417-.132.434c-1.246 2.954-3.587 7.231-5.683 9.798l-.227.388h-.529c-8.554.098-18.112-2.442-26.455-7.087-.755.995-6.324 8.357-7.08 9.344 6.573 6.772 11.552 15.35 13.576 23.814l.132.441-.25.306c-1.908 2.59-5.414 6.023-7.962 8.081l-.303.258-.628-.123c-8.227-2.194-16.933-7.174-23.692-13.71-1.001.756-7.912 6.149-8.934 6.914 4.419 8.096 7.101 17.408 7.101 25.823v1.171l-.509.288c-2.549 2.054-6.78 4.502-9.801 5.739l-.302.128-.504-.165c-7.408-4.314-14.507-11.35-19.36-19.418-1.17.515-9.573 4.111-10.724 4.617a63.467 63.467 0 011.964 13.839c0 4.692-.813 9.383-1.964 13.622l-.057.42-.453.245c-2.811 1.17-7.553 2.345-10.858 2.92l-.513.071-.279-.353c-6.38-6.071-11.271-14.703-13.841-23.723-1.133.084-9.837 1.264-11.064 1.519-.151 9.46-2.75 19.05-7.25 26.484l-.246.391-.509.067c-3.021.459-7.869.459-11.159 0l-.41-.067-.29-.391c-4.36-7.435-6.966-17.024-7.174-26.484-1.303-.126-10.474-1.435-11.746-1.519-2.511 8.963-7.438 17.548-13.652 23.692l-.333.314-.517-.074c-3.397-.501-7.873-1.813-10.874-3.053l-.36-.176-.15-.383c-1.265-4.224-1.922-8.962-1.922-13.659 0-4.602.658-9.209 1.827-13.703-1.169-.505-9.101-3.72-10.253-4.234-4.904 8.202-11.991 15.33-19.468 19.489l-.397.222-.473-.128c-3.096-1.383-7.175-3.723-9.819-5.702l-.32-.322v-.89c0-8.521 2.596-17.899 7.042-26.103a1873.276 1873.276 0 00-9.402-7.146c-6.779 6.532-15.408 11.454-23.754 13.594l-.43.131-.457-.299c-2.548-2.058-5.83-5.371-7.893-7.971l-.28-.453.13-.439c2.213-8.414 7.212-16.998 13.708-23.668-.745-1.008-6.345-8.265-7.137-9.354-8.253 4.624-17.902 7.295-26.456 7.08h-.453l-.302-.293c-2-2.648-4.388-6.877-5.683-9.876l-.188-.448.188-.396c4.311-7.542 11.349-14.504 19.392-19.321-.523-1.238-3.946-9.343-4.531-10.484-9.138 2.274-19.07 2.341-27.43 0l-.403-.128-.244-.379c-1.134-2.816-2.374-7.56-2.884-10.896l-.09-.527.298-.391c6.085-6.198 14.628-11.102 23.773-13.81-.101-1.281-1.44-10.493-1.573-11.767-9.55-.13-19.147-2.592-26.605-7.029l-.378-.246-.038-.514C.057 177.907 0 175.883 0 173.829c0-2.001.057-3.965.264-5.64l.038-.515.378-.202c7.46-4.399 17.056-6.947 26.605-7.089.194-1.261 1.326-10.22 1.473-11.428-9.045-2.591-17.674-7.543-23.805-13.716l-.251-.303.086-.48c.391-3.441 1.689-8.048 2.974-10.903l.136-.417.448-.128c8.257-2.435 18.24-2.364 27.417-.113.509-1.118 3.857-9.195 4.36-10.407-8.099-4.901-15.207-11.876-19.436-19.405l-.219-.476.219-.453c1.33-3.02 3.713-7.114 5.596-9.68l.302-.389h.515c8.662-.122 18.216 2.521 26.454 7.091.77-.925 6.397-8.524 7.157-9.535-6.538-6.815-11.485-15.349-13.619-23.808l-.095-.362.173-.374c2.097-2.624 5.568-6.032 8.101-8.034l.412-.25.377.075c8.516 2.177 17.093 7.242 23.778 13.74.978-.774 7.666-5.933 8.663-6.684-4.607-8.057-7.176-17.447-7.176-25.792V26.9l.419-.298c2.507-1.96 6.755-4.395 9.786-5.626l.316-.204.505.223c7.459 4.214 14.471 11.271 19.375 19.347 1.171-.445 9.875-4.22 11.063-4.697-1.132-4.502-1.844-9.165-1.772-13.786 0-4.806.584-9.38 1.85-13.6l.06-.522.449-.119c2.813-1.176 7.495-2.436 10.782-2.94l.529-.068.383.331c6.206 6.037 11.152 14.678 13.766 23.793 1.277-.128 10.416-1.28 11.644-1.5.194-9.39 2.762-18.975 7.251-26.424l.188-.391.466-.128c3.278-.387 8.106-.387 11.278 0l.417.128.264.391c4.513 7.448 7.12 17.034 7.12 26.339 1.377.305 10.309 1.457 11.58 1.585 2.677-9.115 7.585-17.69 13.836-23.75l.284-.306.415.127c3.399.377 8.007 1.637 10.966 2.932l.363.14.152.515c1.269 4.182 1.886 8.736 1.886 13.467-.074 4.668-.755 9.369-1.886 13.881 1.132.464 9.818 4.098 11.027 4.603 4.815-8.076 11.745-15.077 19.278-19.348l.433-.222.454.204c2.985 1.268 7.157 3.667 9.726 5.687l.381.237v1.17c0 8.557-2.647 17.907-7.121 25.876.963.75 8.138 6.362 9.214 7.189 6.756-6.566 15.35-11.588 23.81-13.67l.378-.207.378.396c2.548 1.891 5.986 5.464 7.926 8.028l.363.378-.157.435c-2.148 8.462-7.251 17.048-13.742 23.77.756 1.034 6.156 8.147 6.988 9.171 8.416-4.527 17.937-7.118 26.566-6.962h.397l.278.381c2.1 2.677 4.5 6.831 5.669 9.681l.283.548-.283.415c-4.286 7.473-11.329 14.387-19.41 19.319.487 1.226 3.776 9.336 4.399 10.471 9.064-2.281 19.032-2.334 27.281 0l.495.098.189.476c1.152 2.869 2.488 7.53 2.926 10.957l.071.419-.335.335c-6.06 6.282-14.688 11.197-23.762 13.759.18 1.251 1.311 10.101 1.519 11.361 9.554.203 19.071 2.757 26.472 7.141l.475.279.056.447c.219 1.618.318 3.576.318 5.662zM86.537 72.709l14.294 15.921c2.001 2.148 4.199 1.884 7.088-.377 18.064-14.165 41.232-22.543 65.929-22.543 24.718 0 47.905 8.345 66.145 22.543 2.852 2.105 4.986 2.526 7.081.377l14.299-15.92c1.621-1.761 1.621-4.187-1.477-6.784-23.982-18.667-53.57-30.185-86.104-30.185-32.344 0-62.362 11.519-85.91 30.27-3.082 2.511-2.94 4.938-1.345 6.698zm.967 66.954c-1.571-1.019-3.251-2.186-4.626-1.576-1.118.34-1.93 1.51-2.516 3.412-6.704 23.001-6.704 42.499 0 65.199.453 1.477.963 2.949 2.303 3.322 1.105.457 2.724 0 4.839-1.458l44.256-30.144c1.641-1.104 2.643-2.675 2.643-4.252 0-1.714-1.002-3.219-2.643-4.375l-44.256-30.128zm9.683-26.376c.208 1.614 2.04 2.435 3.644 3.19l48.224 23.423c1.917.915 3.702.915 5.155.16 1.36-.888 2.234-2.431 2.362-4.484l3.89-53.49c.213-2.58-.153-4.097-1.077-4.89-1.02-.877-2.531-.633-3.985-.363-23.112 5.557-39.954 15.322-56.553 32.636-1.34 1.514-1.963 2.789-1.66 3.818zm.698 122.305c0 .918.623 2.059 1.794 3.273 16.605 17.464 33.423 27.181 56.515 32.599 1.473.45 2.928.672 3.948-.13 1.044-.778 1.34-2.384 1.17-4.91 0-.078-3.928-53.599-3.928-53.599-.17-2.029-.94-3.577-2.36-4.393-1.435-.846-3.231-.846-5.155.031l-48.17 23.444c-1.681.785-3.502 1.668-3.757 3.246 0 .1-.057.304-.057.439zm75.962-26.954c19.072 0 34.57-15.479 34.57-34.542 0-19.063-15.497-34.56-34.57-34.629-19.063 0-34.554 15.566-34.554 34.629 0 19.063 15.491 34.542 34.554 34.542zm14.617 61.918c.812.641 2.151.829 4.21.316 23.036-5.529 39.937-15.289 56.401-32.564.984-1.136 2.055-2.307 1.734-3.607-.299-1.246-1.355-2.374-3.602-3.431l-48.302-23.435c-1.831-.865-3.607-.865-5.078-.094-1.423.897-2.284 2.416-2.416 4.535l-3.909 53.455c-.039 1.751-.246 3.748.962 4.825zm72.017-62.306c1.43.931 3.096 2.057 4.608 1.535 1.019-.311 1.907-1.436 2.472-3.46 6.761-22.915 6.761-42.491 0-65.132-.415-1.422-1.076-2.889-2.265-3.423-1.209-.429-2.718.066-4.89 1.535l-44.279 30.107c-1.719 1.152-2.588 2.724-2.588 4.348 0 1.614.869 3.186 2.588 4.318l44.354 30.172zm-9.762-95.817c.056-.917-.509-2.072-1.794-3.337-16.45-17.398-33.346-27.131-56.521-32.643-1.297-.336-2.808-.643-3.809.244-1.04.831-1.339 2.436-1.134 4.837l3.819 53.608c.129 2.029 1.039 3.639 2.393 4.455 1.492.845 3.266.689 5.118-.204l48.281-23.297c1.549-.752 3.304-1.573 3.644-3.221.003-.103.059-.235.003-.442zM44.562 208.105l20.545-5.969c1.926-.564 3.512-2.586 3.36-5.097-7.378-38.27 2.001-69.295 24.434-94.165 2.265-1.614 2.51-4.937.34-7.207L78.305 80.652c-1.453-1.66-4.094-1.66-6.353.648-28.638 30.132-43.095 76.375-32.49 123.65.586 2.267 2.38 3.934 5.1 3.155zm255.458 10.998l-20.6-7.035c-1.077-.4-3.889-.4-5.363 3.225-16.636 39.893-55.364 67.193-100.21 67.193-44.9 0-84.347-27.926-100.263-67.817a4.175 4.175 0 00-5.174-2.602l-20.487 7.034c-2.23.8-3.564 2.777-2.4 5.621 20.13 51.348 70.169 87.599 128.324 87.599 58.14 0 108.404-36.5 128.595-87.817 1.053-2.682-.213-4.6-2.422-5.401zm-23.809-138.01c-2.021-2.47-5.363-2.102-6.326-.379l-14.893 14.953c-2.177 2.27-1.97 5.594.297 7.207 22.47 24.871 31.855 55.83 24.493 94.165-.171 2.512 1.415 4.532 3.379 5.099l20.583 5.967c2.738.779 4.494-.887 5.078-3.234 10.591-47.196-3.911-93.595-32.611-123.779zm-47.962-5.581l4.738-9.127 12.785-5.943c-1.341-.963-2.796-1.639-4.15-2.526l-8.805 4.013-1.625-9.565c-1.845-.873-2.944-1.253-4.865-2.029l2.563 13.91-4.74 9.016 4.099 2.25zm-23.962 207.01c-6.381 1.396-11.293 2.555-17.618 3.54l.587 3.672c2.341-.37 4.484-.648 6.949-.958l3.191 17.694 4.697-.887-3.81-17.644c2.416-.599 4.645-1.208 7.042-1.77l-1.038-3.647zm-62.669 3.095v1.194c-.342 2.921-2.324 5.89-5.533 6.262l.741 10.205c-1.488-.34-3.177-.835-4.768-1.512l-.165-9.599-4.318-1.844-3.499 8.472c-1.416-.467-2.828-.919-4.21-1.598l4.437-10.31.529-1.27 3.608-8.507 9.818 3.79c2.183.778 3.19 2.724 3.36 4.717zm-4.118 0c-.131-.616-.376-1.106-1.133-1.451l-5.495-2.025-1.246 3.475-.435 1.269-.036.08 5.003 1.874c1.378.609 2.699-.613 3.178-1.954.164-.367.301-.823.164-1.268zm66.655-220.225c-1.756-.51-3.057-.725-4.986-1.273l3.555-12.14 2.601-8.653c3.758.934 7.326 2.153 10.896 3.313 2.019.62 3.095 2.908 3.302 5.34.132 3.308-1.51 6.899-4.848 7.65l1.298 9.78c-1.568-.647-2.72-1.133-4.455-1.817l-1.135-8.549-4.19-1.282-2.038 7.63zm3.002-11.446l4.909 1.582c1.34.383 3.115-1.717 3.115-3.55 0-.868-.302-1.642-1.471-1.902-1.815-.7-3.06-1.01-5.037-1.511l-1.008 3.413-.508 1.968zM183.346 296.03l4.74 11.508c-1.549.066-2.997.219-4.381.382l-1.467-3.719-9.485.265-1.09 3.889a50.161 50.161 0 00-4.437-.176l4.092-12.149 2.913-9.218.144-.294 4.835-.216.245.586 3.891 9.142zm-2.87 4.188l-1.704-4.186-1.712-4.531-1.492 4.531-1.473 4.463 6.381-.277zm29.003-19.547l7.251 20.71c1.417-.49 2.927-.918 4.362-1.54l-7.042-20.619c-1.931.657-2.814.921-4.571 1.449zM104.178 62.245l-1.214-2.182c3.193-2.024 6.63-3.78 9.935-5.55 3.897-2.148 9.392 3.058 9.006 7.73-.076.821-.302 1.573-.795 2.328l7.97 5.797c-1.505.703-2.643 1.303-4.431 2.08l-6.973-5.097-3.852 2.058 4.098 6.777c-1.587 1.01-2.549 1.639-4.4 2.72l-9.344-16.662zm4.811-1.03l.605 1.03 2.214 3.832 4.603-2.416c.433-.214.678-.75.754-1.416.095-2.078-1.41-4.89-3.587-3.579-1.7.888-2.739 1.502-4.589 2.55z" fill="#FEBD11"/></svg>