<svg width="348" height="348" viewBox="0 0 348 348" fill="none" xmlns="http://www.w3.org/2000/svg">
<path d="M98.848 262.828L87.2393 276.596L83.6284 273.462L95.6225 260.095C93.7304 258.334 92.2761 256.749 90.4296 255.111L93.1068 252.429C97.6762 256.749 101.697 260.095 106.741 264.153L104.422 267.106C102.587 265.669 100.699 264.288 98.848 262.828ZM75.5856 228.585L56.7607 239.576C57.4395 240.894 58.1611 242.441 58.9891 243.712L77.852 232.692C76.9301 231.03 76.4164 230.141 75.5856 228.585ZM87.6702 246.139L77.4729 254.95L82.6658 239.848C81.7453 238.554 81.3254 237.651 80.3628 236.462L62.0848 248.863C62.8969 250.089 63.8975 251.223 64.7662 252.491L75.7555 244.879L70.6006 260.097C71.4976 261.102 72.3946 262.642 73.6597 263.665L90.5684 249.165C89.6334 248.162 88.5009 247.27 87.6702 246.139ZM112.481 273.146C115.447 274.762 118.354 276.445 121.601 277.984L123.547 274.762C119.052 272.44 114.827 269.781 111.045 267.157L98.6381 285.366C103.341 288.482 107.645 291.083 112.479 293.873L114.48 290.658L104.474 284.763L107.853 280.014L114.481 283.998L116.409 280.902C114.28 279.733 112.064 278.384 109.743 276.959L112.481 273.146ZM173.847 205.267C156.704 205.267 142.693 191.2 142.693 174.095C142.693 156.866 156.705 142.872 173.847 142.872C191.107 142.872 204.985 156.866 204.985 174.095C204.985 191.276 191.031 205.267 173.847 205.267ZM174.232 194.958C185.613 194.958 194.964 185.612 194.964 174.224C194.964 164.765 188.388 156.537 179.324 154.277C179.212 153.346 178.962 149.023 178.962 149.023H168.504C168.504 149.023 168.265 153.72 168.183 154.654C159.498 157.287 153.645 165.202 153.645 174.223C153.645 185.611 162.992 194.958 174.232 194.958ZM128.438 56.3637V55.3405C128.325 49.6993 132.648 45.0538 138.331 44.5995C144.334 44.0147 149.667 48.4302 150.171 54.4663V55.3411C150.174 58.0928 149.147 60.746 147.291 62.7778C145.435 64.8095 142.885 66.0724 140.144 66.3175C134.31 66.8326 128.947 62.4385 128.438 56.3637ZM132.427 55.9764C132.725 59.8561 136.161 62.6877 139.9 62.3667C143.582 61.989 146.338 59.0441 146.338 55.3391C146.469 55.1533 146.338 54.9427 146.338 54.6962C146.016 50.7972 142.655 48.0595 138.765 48.4282C135.07 48.7016 132.29 51.6278 132.426 55.3391L132.427 55.9764ZM177.815 61.3669C175.983 61.3489 175.133 61.3489 173.338 61.3489L178.772 50.077L183.707 39.8387L188.597 40.3435L191.165 50.077L194.716 63.1614C193.073 62.8548 191.789 62.609 190.242 62.5186L188.976 58.4186C185.747 57.9159 182.825 57.7619 179.838 57.6287L177.815 61.3669ZM181.439 53.9464C183.817 54.0596 186.029 54.3241 188.256 54.641L187.085 50.077L185.614 45.3804L183.397 50.077L181.439 53.9464ZM159.72 44.2184L161.651 62.0663L166.334 61.5747L164.501 43.86L171.589 43.4209L171.319 39.4458C163.407 39.8988 160.14 40.2199 152.303 41.3895L152.833 45.1657L159.72 44.2184ZM160.462 285.834L158.876 299.155L152.474 284.546C150.972 284.253 150.038 283.867 148.526 283.624L143.505 305.167C145.052 305.584 146.544 305.75 148.151 306.027L150.838 292.797L157.327 307.538C158.8 307.758 160.462 308.223 162.179 308.179L164.578 285.929C163.318 285.858 161.821 286.062 160.462 285.834ZM287.01 239.576L271.002 230.764L268.959 234.452L288.162 245.169L295.563 231.905L292.261 230.14L287.01 239.576ZM262.879 242.801L284.67 249.957C284.156 250.603 283.748 251.221 283.292 251.872C282.913 252.363 282.46 252.859 282.159 253.497L278.345 252.124L272.396 259.552L274.568 262.956C273.601 264.067 272.594 265.142 271.548 266.18L262.915 251.874L259.73 246.6L262.879 242.801ZM265.353 247.79L267.94 251.873L270.3 255.989L273.491 251.873L274.322 250.849L265.353 247.79ZM242.459 276.907C243.394 278.54 243.845 280.429 243.916 282.359C243.915 283.893 243.595 285.409 242.977 286.813C241.956 288.841 240.446 290.658 238.351 291.871C233.229 294.858 226.612 293.074 223.509 287.813C223.387 287.467 223.235 287.133 223.057 286.813C222.429 285.41 222.132 283.865 222 282.359C222.132 278.485 224.021 274.908 227.49 272.896C232.685 269.952 239.394 271.711 242.459 276.907ZM239.993 282.359C239.993 281.048 239.654 279.878 239.029 278.745C237.217 275.365 232.912 274.275 229.551 276.2C227.189 277.469 225.981 279.878 225.981 282.359C226.057 283.492 226.327 284.762 227.001 285.833C227.21 286.213 227.464 286.567 227.758 286.886C229.86 289.401 233.573 289.988 236.429 288.325C237.152 287.966 237.803 287.479 238.35 286.886C239.394 285.617 239.993 283.918 239.993 282.359ZM250.51 256.329L259.575 266.098L244.355 261.609C243.089 262.572 242.24 262.907 241.125 263.886L254.363 281.678C255.496 280.802 256.666 279.731 257.723 278.828L249.684 268.122L265.05 272.747C266.107 271.834 267.619 270.799 268.656 269.497L253.324 253.293C252.511 254.183 251.568 255.346 250.51 256.329ZM348 174.223C348 176.252 347.9 178.292 347.679 179.915L347.623 180.356L347.149 180.595C339.747 185 330.194 187.507 320.602 187.771C320.375 188.984 319.337 197.644 319.157 198.862C328.097 201.439 336.763 206.326 342.806 212.571L343.052 212.957V213.353C342.579 216.763 341.37 221.336 340.03 224.303L339.879 224.771L339.439 224.843C331.056 227.254 321.181 227.165 312.046 224.904C311.606 226.038 308.233 234.084 307.892 235.254C315.897 240.314 322.979 247.271 326.962 254.696L327.17 255.113L327.038 255.547C325.792 258.501 323.451 262.778 321.355 265.345L321.128 265.733H320.599C312.045 265.831 302.487 263.291 294.144 258.646C293.389 259.641 287.82 267.003 287.064 267.99C293.637 274.762 298.616 283.34 300.64 291.804L300.772 292.245L300.522 292.551C298.614 295.141 295.108 298.574 292.56 300.632L292.257 300.89L291.629 300.767C283.402 298.573 274.696 293.593 267.937 287.057C266.936 287.813 260.025 293.206 259.003 293.971C263.422 302.067 266.104 311.379 266.104 319.794V320.965L265.595 321.253C263.046 323.307 258.815 325.755 255.794 326.992L255.492 327.12L254.988 326.955C247.58 322.641 240.481 315.605 235.628 307.537C234.458 308.052 226.055 311.648 224.904 312.154C226.055 316.648 226.735 321.347 226.868 325.993C226.868 330.685 226.055 335.376 224.904 339.615L224.847 340.035L224.394 340.28C221.583 341.45 216.841 342.625 213.536 343.2L213.023 343.271L212.744 342.918C206.364 336.847 201.473 328.215 198.903 319.195C197.77 319.279 189.066 320.459 187.839 320.714C187.688 330.174 185.089 339.764 180.589 347.198L180.343 347.589L179.834 347.656C176.813 348.115 171.965 348.115 168.675 347.656L168.265 347.589L167.975 347.198C163.615 339.763 161.009 330.174 160.801 320.714C159.498 320.588 150.327 319.279 149.055 319.195C146.544 328.158 141.617 336.743 135.403 342.887L135.07 343.201L134.553 343.127C131.156 342.626 126.68 341.314 123.679 340.074L123.319 339.898L123.169 339.515C121.904 335.291 121.247 330.553 121.247 325.856C121.247 321.254 121.905 316.647 123.074 312.153C121.905 311.648 113.973 308.433 112.821 307.919C107.917 316.121 100.83 323.249 93.3527 327.408L92.9556 327.63L92.4833 327.502C89.3869 326.119 85.3078 323.779 82.6644 321.8L82.344 321.478V320.588C82.344 312.067 84.9404 302.689 89.3862 294.485C86.2594 292.093 83.1252 289.711 79.9837 287.339C73.2053 293.871 64.5763 298.793 56.2304 300.933L55.8002 301.064L55.343 300.765C52.7949 298.707 49.5134 295.394 47.4501 292.794L47.1704 292.341L47.2995 291.902C49.5127 283.488 54.5116 274.904 61.0082 268.234C60.2625 267.226 54.6635 259.969 53.8708 258.88C45.6181 263.504 35.9691 266.175 27.4153 265.96H26.9623L26.6599 265.667C24.6593 263.019 22.2721 258.79 20.9774 255.791L20.7888 255.343L20.9774 254.947C25.2884 247.405 32.3258 240.443 40.3692 235.626C39.8458 234.388 36.4228 226.283 35.8379 225.142C26.6999 227.416 16.7678 227.483 8.40738 225.142L8.00548 225.014L7.76103 224.635C6.62716 221.819 5.38694 217.075 4.87663 213.739L4.78755 213.212L5.08517 212.821C11.1703 206.623 19.713 201.719 28.8579 199.011C28.757 197.73 27.4174 188.518 27.2848 187.244C17.7353 187.114 8.13807 184.652 0.680187 180.215L0.302459 179.969L0.264479 179.455C0.0566246 177.907 0 175.883 0 173.829C0 171.828 0.0566246 169.864 0.264479 168.189L0.302459 167.674L0.680187 167.472C8.13945 163.073 17.736 160.525 27.2848 160.383C27.4788 159.122 28.6113 150.163 28.7577 148.955C19.713 146.364 11.0839 141.412 4.95259 135.239L4.70192 134.936L4.78824 134.456C5.17909 131.015 6.47662 126.408 7.76172 123.553L7.89845 123.136L8.34592 123.008C16.6028 120.573 26.586 120.644 35.7626 122.895C36.2715 121.777 39.62 113.7 40.1234 112.488C32.024 107.587 24.9162 100.612 20.6866 93.0829L20.4684 92.6072L20.6866 92.1542C22.0166 89.1334 24.4004 85.0403 26.2828 82.4732L26.5853 82.0851H27.1004C35.7619 81.9629 45.3163 84.606 53.5545 89.1762C54.3245 88.251 59.951 80.6517 60.7106 79.6408C54.1732 72.8259 49.2262 64.2924 47.0924 55.8335L46.9971 55.471L47.1704 55.0974C49.2669 52.4729 52.7376 49.0655 55.2712 47.0631L55.6828 46.8125L56.0605 46.8884C64.5763 49.0648 73.1529 54.1301 79.838 60.6288C80.8158 59.8541 87.5044 54.6949 88.5009 53.9443C83.8936 45.8872 81.3248 36.4975 81.3248 28.1525V26.8986L81.7439 26.601C84.2513 24.6415 88.4995 22.2062 91.5303 20.9751L91.8459 20.7714L92.3514 20.9937C99.8099 25.2084 106.822 32.265 111.726 40.3414C112.897 39.896 121.601 36.1205 122.789 35.6441C121.657 31.1416 120.945 26.4788 121.017 21.8582C121.017 17.0525 121.601 12.4789 122.867 8.25871L122.927 7.73602L123.376 7.61726C126.189 6.44139 130.871 5.18128 134.158 4.67724L134.687 4.60889L135.07 4.94031C141.276 10.9771 146.222 19.6183 148.836 28.7332C150.113 28.6055 159.252 27.4531 160.48 27.2328C160.674 17.8431 163.242 8.25802 167.731 0.80923L167.919 0.417734L168.385 0.289997C171.663 -0.0966657 176.491 -0.0966657 179.663 0.289997L180.08 0.417734L180.344 0.80923C184.857 8.25733 187.464 17.8431 187.464 27.1479C188.841 27.4531 197.773 28.6055 199.044 28.7332C201.721 19.6183 206.629 11.0427 212.88 4.98243L213.164 4.67724L213.579 4.8036C216.978 5.18128 221.586 6.44139 224.545 7.73602L224.908 7.87619L225.06 8.39128C226.329 12.5735 226.946 17.1271 226.946 21.8582C226.872 26.5258 226.191 31.2265 225.06 35.7394C226.192 36.2027 234.878 39.8373 236.087 40.3421C240.902 32.2663 247.832 25.265 255.365 20.9944L255.798 20.7721L256.252 20.9758C259.237 22.2442 263.409 24.6429 265.978 26.6625L266.359 26.9V28.0704C266.359 36.6273 263.712 45.977 259.238 53.9457C260.201 54.6962 267.376 60.3084 268.452 61.1349C275.208 54.5685 283.802 49.5467 292.262 47.4656L292.64 47.2578L293.018 47.6541C295.566 49.5453 299.004 53.1185 300.944 55.6822L301.307 56.0599L301.15 56.4949C299.002 64.9573 293.899 73.5433 287.408 80.265C288.164 81.2993 293.564 88.4119 294.396 89.4365C302.812 84.9091 312.333 82.3178 320.962 82.4738H321.359L321.637 82.855C323.737 85.5319 326.137 89.6865 327.306 92.5361L327.589 93.0836L327.306 93.4993C323.02 100.972 315.977 107.886 307.896 112.818C308.383 114.044 311.672 122.154 312.295 123.289C321.359 121.008 331.327 120.955 339.576 123.289L340.071 123.387L340.26 123.863C341.412 126.732 342.748 131.393 343.186 134.82L343.257 135.239L342.922 135.574C336.862 141.856 328.234 146.771 319.16 149.333C319.34 150.584 320.471 159.434 320.679 160.694C330.233 160.897 339.75 163.451 347.151 167.835L347.626 168.114L347.682 168.561C347.901 170.179 348 172.137 348 174.223ZM86.537 72.7092L100.831 88.6301C102.832 90.7781 105.03 90.5144 107.919 88.2531C125.983 74.0881 149.151 65.7099 173.848 65.7099C198.566 65.7099 221.753 74.0549 239.993 88.2531C242.845 90.3576 244.979 90.7788 247.074 88.6301L261.373 72.7092C262.994 70.9485 262.994 68.5229 259.896 65.926C235.914 47.2592 206.326 35.7408 173.792 35.7408C141.448 35.7408 111.43 47.2599 87.8822 66.0117C84.7996 68.5222 84.9411 70.9485 86.537 72.7092ZM87.5044 139.663C85.9328 138.644 84.2527 137.477 82.8778 138.087C81.7598 138.427 80.9484 139.597 80.3621 141.499C73.6583 164.5 73.6583 183.998 80.3621 206.698C80.8151 208.175 81.3254 209.647 82.6651 210.02C83.77 210.477 85.3886 210.02 87.5038 208.562L131.76 178.418C133.401 177.314 134.403 175.743 134.403 174.166C134.403 172.452 133.401 170.947 131.76 169.791L87.5044 139.663ZM97.1872 113.287C97.3951 114.901 99.2264 115.722 100.831 116.477L149.055 139.9C150.972 140.815 152.757 140.815 154.21 140.06C155.57 139.172 156.444 137.629 156.572 135.576L160.462 82.0865C160.675 79.5062 160.309 77.9892 159.385 77.1966C158.365 76.319 156.854 76.5634 155.4 76.8334C132.288 82.3896 115.446 92.1549 98.8473 109.469C97.5077 110.983 96.8841 112.258 97.1872 113.287ZM97.8854 235.592C97.8854 236.51 98.5083 237.651 99.6794 238.865C116.284 256.329 133.102 266.046 156.194 271.464C157.667 271.914 159.122 272.136 160.142 271.334C161.186 270.556 161.482 268.95 161.312 266.424C161.312 266.346 157.384 212.825 157.384 212.825C157.214 210.796 156.444 209.248 155.024 208.432C153.589 207.586 151.793 207.586 149.869 208.463L101.699 231.907C100.018 232.692 98.1968 233.575 97.942 235.153C97.942 235.253 97.8854 235.457 97.8854 235.592ZM173.847 208.638C192.919 208.638 208.417 193.159 208.417 174.096C208.417 155.033 192.92 139.536 173.847 139.467C154.784 139.467 139.293 155.033 139.293 174.096C139.293 193.159 154.784 208.638 173.847 208.638ZM188.464 270.556C189.276 271.197 190.615 271.385 192.674 270.872C215.71 265.343 232.611 255.583 249.075 238.308C250.059 237.172 251.13 236.001 250.809 234.701C250.51 233.455 249.454 232.327 247.207 231.27L198.905 207.835C197.074 206.97 195.298 206.97 193.827 207.741C192.404 208.638 191.543 210.157 191.411 212.276L187.502 265.731C187.463 267.482 187.256 269.479 188.464 270.556ZM260.481 208.25C261.911 209.181 263.577 210.307 265.089 209.785C266.108 209.474 266.996 208.349 267.561 206.325C274.322 183.41 274.322 163.834 267.561 141.193C267.146 139.771 266.485 138.304 265.296 137.77C264.087 137.341 262.578 137.836 260.406 139.305L216.127 169.412C214.408 170.564 213.539 172.136 213.539 173.76C213.539 175.374 214.408 176.946 216.127 178.078L260.481 208.25ZM250.719 112.433C250.775 111.516 250.21 110.361 248.925 109.096C232.475 91.6978 215.579 81.965 192.404 76.4529C191.107 76.1174 189.596 75.8101 188.595 76.6974C187.555 77.528 187.256 79.1333 187.461 81.5341L191.28 135.142C191.409 137.171 192.319 138.781 193.673 139.597C195.165 140.442 196.939 140.286 198.791 139.393L247.072 116.096C248.621 115.344 250.376 114.523 250.716 112.875C250.719 112.772 250.775 112.64 250.719 112.433ZM44.5615 208.105L65.1066 202.136C67.0326 201.572 68.6187 199.55 68.4668 197.039C61.089 158.769 70.468 127.744 92.901 102.874C95.166 101.26 95.4119 97.9369 93.2408 95.6666L78.305 80.6524C76.8521 78.9911 74.2115 78.9911 71.952 81.3C43.3144 111.432 28.8572 157.675 39.4626 204.95C40.0481 207.217 41.8415 208.884 44.5615 208.105ZM300.02 219.103L279.42 212.068C278.343 211.668 275.531 211.668 274.057 215.293C257.421 255.186 218.693 282.486 173.847 282.486C128.947 282.486 89.5001 254.56 73.5838 214.669C73.226 213.65 72.4869 212.81 71.5221 212.324C70.5572 211.839 69.4417 211.747 68.4102 212.067L47.9231 219.101C45.6933 219.901 44.3592 221.878 45.5235 224.722C65.6528 276.07 115.692 312.321 173.847 312.321C231.987 312.321 282.251 275.821 302.442 224.504C303.495 221.822 302.229 219.904 300.02 219.103ZM276.211 81.0922C274.19 78.6231 270.848 78.9911 269.885 80.7145L254.992 95.6673C252.815 97.9369 253.022 101.261 255.289 102.874C277.759 127.745 287.144 158.704 279.782 197.039C279.611 199.551 281.197 201.571 283.161 202.138L303.744 208.105C306.482 208.884 308.238 207.218 308.822 204.871C319.413 157.675 304.911 111.276 276.211 81.0922ZM348 174.223C348 176.252 347.9 178.292 347.679 179.915L347.623 180.356L347.149 180.595C339.747 185 330.194 187.507 320.602 187.771C320.375 188.984 319.337 197.644 319.157 198.862C328.097 201.439 336.763 206.326 342.806 212.571L343.052 212.957V213.353C342.579 216.763 341.37 221.336 340.03 224.303L339.879 224.771L339.439 224.843C331.056 227.254 321.181 227.165 312.046 224.904C311.606 226.038 308.233 234.084 307.892 235.254C315.897 240.314 322.979 247.271 326.962 254.696L327.17 255.113L327.038 255.547C325.792 258.501 323.451 262.778 321.355 265.345L321.128 265.733H320.599C312.045 265.831 302.487 263.291 294.144 258.646C293.389 259.641 287.82 267.003 287.064 267.99C293.637 274.762 298.616 283.34 300.64 291.804L300.772 292.245L300.522 292.551C298.614 295.141 295.108 298.574 292.56 300.632L292.257 300.89L291.629 300.767C283.402 298.573 274.696 293.593 267.937 287.057C266.936 287.813 260.025 293.206 259.003 293.971C263.422 302.067 266.104 311.379 266.104 319.794V320.965L265.595 321.253C263.046 323.307 258.815 325.755 255.794 326.992L255.492 327.12L254.988 326.955C247.58 322.641 240.481 315.605 235.628 307.537C234.458 308.052 226.055 311.648 224.904 312.154C226.055 316.648 226.735 321.347 226.868 325.993C226.868 330.685 226.055 335.376 224.904 339.615L224.847 340.035L224.394 340.28C221.583 341.45 216.841 342.625 213.536 343.2L213.023 343.271L212.744 342.918C206.364 336.847 201.473 328.215 198.903 319.195C197.77 319.279 189.066 320.459 187.839 320.714C187.688 330.174 185.089 339.764 180.589 347.198L180.343 347.589L179.834 347.656C176.813 348.115 171.965 348.115 168.675 347.656L168.265 347.589L167.975 347.198C163.615 339.763 161.009 330.174 160.801 320.714C159.498 320.588 150.327 319.279 149.055 319.195C146.544 328.158 141.617 336.743 135.403 342.887L135.07 343.201L134.553 343.127C131.156 342.626 126.68 341.314 123.679 340.074L123.319 339.898L123.169 339.515C121.904 335.291 121.247 330.553 121.247 325.856C121.247 321.254 121.905 316.647 123.074 312.153C121.905 311.648 113.973 308.433 112.821 307.919C107.917 316.121 100.83 323.249 93.3527 327.408L92.9556 327.63L92.4833 327.502C89.3869 326.119 85.3078 323.779 82.6644 321.8L82.344 321.478V320.588C82.344 312.067 84.9404 302.689 89.3862 294.485C86.2594 292.093 83.1252 289.711 79.9837 287.339C73.2053 293.871 64.5763 298.793 56.2304 300.933L55.8002 301.064L55.343 300.765C52.7949 298.707 49.5134 295.394 47.4501 292.794L47.1704 292.341L47.2995 291.902C49.5127 283.488 54.5116 274.904 61.0082 268.234C60.2625 267.226 54.6635 259.969 53.8708 258.88C45.6181 263.504 35.9691 266.175 27.4153 265.96H26.9623L26.6599 265.667C24.6593 263.019 22.2721 258.79 20.9774 255.791L20.7888 255.343L20.9774 254.947C25.2884 247.405 32.3258 240.443 40.3692 235.626C39.8458 234.388 36.4228 226.283 35.8379 225.142C26.6999 227.416 16.7678 227.483 8.40738 225.142L8.00548 225.014L7.76103 224.635C6.62716 221.819 5.38694 217.075 4.87663 213.739L4.78755 213.212L5.08517 212.821C11.1703 206.623 19.713 201.719 28.8579 199.011C28.757 197.73 27.4174 188.518 27.2848 187.244C17.7353 187.114 8.13807 184.652 0.680187 180.215L0.302459 179.969L0.264479 179.455C0.0566246 177.907 0 175.883 0 173.829C0 171.828 0.0566246 169.864 0.264479 168.189L0.302459 167.674L0.680187 167.472C8.13945 163.073 17.736 160.525 27.2848 160.383C27.4788 159.122 28.6113 150.163 28.7577 148.955C19.713 146.364 11.0839 141.412 4.95259 135.239L4.70192 134.936L4.78824 134.456C5.17909 131.015 6.47662 126.408 7.76172 123.553L7.89845 123.136L8.34592 123.008C16.6028 120.573 26.586 120.644 35.7626 122.895C36.2715 121.777 39.62 113.7 40.1234 112.488C32.024 107.587 24.9162 100.612 20.6866 93.0829L20.4684 92.6072L20.6866 92.1542C22.0166 89.1334 24.4004 85.0403 26.2828 82.4732L26.5853 82.0851H27.1004C35.7619 81.9629 45.3163 84.606 53.5545 89.1762C54.3245 88.251 59.951 80.6517 60.7106 79.6408C54.1732 72.8259 49.2262 64.2924 47.0924 55.8335L46.9971 55.471L47.1704 55.0974C49.2669 52.4729 52.7376 49.0655 55.2712 47.0631L55.6828 46.8125L56.0605 46.8884C64.5763 49.0648 73.1529 54.1301 79.838 60.6288C80.8158 59.8541 87.5044 54.6949 88.5009 53.9443C83.8936 45.8872 81.3248 36.4975 81.3248 28.1525V26.8986L81.7439 26.601C84.2513 24.6415 88.4995 22.2062 91.5303 20.9751L91.8459 20.7714L92.3514 20.9937C99.8099 25.2084 106.822 32.265 111.726 40.3414C112.897 39.896 121.601 36.1205 122.789 35.6441C121.657 31.1416 120.945 26.4788 121.017 21.8582C121.017 17.0525 121.601 12.4789 122.867 8.25871L122.927 7.73602L123.376 7.61726C126.189 6.44139 130.871 5.18128 134.158 4.67724L134.687 4.60889L135.07 4.94031C141.276 10.9771 146.222 19.6183 148.836 28.7332C150.113 28.6055 159.252 27.4531 160.48 27.2328C160.674 17.8431 163.242 8.25802 167.731 0.80923L167.919 0.417734L168.385 0.289997C171.663 -0.0966657 176.491 -0.0966657 179.663 0.289997L180.08 0.417734L180.344 0.80923C184.857 8.25733 187.464 17.8431 187.464 27.1479C188.841 27.4531 197.773 28.6055 199.044 28.7332C201.721 19.6183 206.629 11.0427 212.88 4.98243L213.164 4.67724L213.579 4.8036C216.978 5.18128 221.586 6.44139 224.545 7.73602L224.908 7.87619L225.06 8.39128C226.329 12.5735 226.946 17.1271 226.946 21.8582C226.872 26.5258 226.191 31.2265 225.06 35.7394C226.192 36.2027 234.878 39.8373 236.087 40.3421C240.902 32.2663 247.832 25.265 255.365 20.9944L255.798 20.7721L256.252 20.9758C259.237 22.2442 263.409 24.6429 265.978 26.6625L266.359 26.9V28.0704C266.359 36.6273 263.712 45.977 259.238 53.9457C260.201 54.6962 267.376 60.3084 268.452 61.1349C275.208 54.5685 283.802 49.5467 292.262 47.4656L292.64 47.2578L293.018 47.6541C295.566 49.5453 299.004 53.1185 300.944 55.6822L301.307 56.0599L301.15 56.4949C299.002 64.9573 293.899 73.5433 287.408 80.265C288.164 81.2993 293.564 88.4119 294.396 89.4365C302.812 84.9091 312.333 82.3178 320.962 82.4738H321.359L321.637 82.855C323.737 85.5319 326.137 89.6865 327.306 92.5361L327.589 93.0836L327.306 93.4993C323.02 100.972 315.977 107.886 307.896 112.818C308.383 114.044 311.672 122.154 312.295 123.289C321.359 121.008 331.327 120.955 339.576 123.289L340.071 123.387L340.26 123.863C341.412 126.732 342.748 131.393 343.186 134.82L343.257 135.239L342.922 135.574C336.862 141.856 328.234 146.771 319.16 149.333C319.34 150.584 320.471 159.434 320.679 160.694C330.233 160.897 339.75 163.451 347.151 167.835L347.626 168.114L347.682 168.561C347.901 170.179 348 172.137 348 174.223ZM86.537 72.7092L100.831 88.6301C102.832 90.7781 105.03 90.5144 107.919 88.2531C125.983 74.0881 149.151 65.7099 173.848 65.7099C198.566 65.7099 221.753 74.0549 239.993 88.2531C242.845 90.3576 244.979 90.7788 247.074 88.6301L261.373 72.7092C262.994 70.9485 262.994 68.5229 259.896 65.926C235.914 47.2592 206.326 35.7408 173.792 35.7408C141.448 35.7408 111.43 47.2599 87.8822 66.0117C84.7996 68.5222 84.9411 70.9485 86.537 72.7092ZM87.5044 139.663C85.9328 138.644 84.2527 137.477 82.8778 138.087C81.7598 138.427 80.9484 139.597 80.3621 141.499C73.6583 164.5 73.6583 183.998 80.3621 206.698C80.8151 208.175 81.3254 209.647 82.6651 210.02C83.77 210.477 85.3886 210.02 87.5038 208.562L131.76 178.418C133.401 177.314 134.403 175.743 134.403 174.166C134.403 172.452 133.401 170.947 131.76 169.791L87.5044 139.663ZM97.1872 113.287C97.3951 114.901 99.2264 115.722 100.831 116.477L149.055 139.9C150.972 140.815 152.757 140.815 154.21 140.06C155.57 139.172 156.444 137.629 156.572 135.576L160.462 82.0865C160.675 79.5062 160.309 77.9892 159.385 77.1966C158.365 76.319 156.854 76.5634 155.4 76.8334C132.288 82.3896 115.446 92.1549 98.8473 109.469C97.5077 110.983 96.8841 112.258 97.1872 113.287ZM97.8854 235.592C97.8854 236.51 98.5083 237.651 99.6794 238.865C116.284 256.329 133.102 266.046 156.194 271.464C157.667 271.914 159.122 272.136 160.142 271.334C161.186 270.556 161.482 268.95 161.312 266.424C161.312 266.346 157.384 212.825 157.384 212.825C157.214 210.796 156.444 209.248 155.024 208.432C153.589 207.586 151.793 207.586 149.869 208.463L101.699 231.907C100.018 232.692 98.1968 233.575 97.942 235.153C97.942 235.253 97.8854 235.457 97.8854 235.592ZM173.847 208.638C192.919 208.638 208.417 193.159 208.417 174.096C208.417 155.033 192.92 139.536 173.847 139.467C154.784 139.467 139.293 155.033 139.293 174.096C139.293 193.159 154.784 208.638 173.847 208.638ZM188.464 270.556C189.276 271.197 190.615 271.385 192.674 270.872C215.71 265.343 232.611 255.583 249.075 238.308C250.059 237.172 251.13 236.001 250.809 234.701C250.51 233.455 249.454 232.327 247.207 231.27L198.905 207.835C197.074 206.97 195.298 206.97 193.827 207.741C192.404 208.638 191.543 210.157 191.411 212.276L187.502 265.731C187.463 267.482 187.256 269.479 188.464 270.556ZM260.481 208.25C261.911 209.181 263.577 210.307 265.089 209.785C266.108 209.474 266.996 208.349 267.561 206.325C274.322 183.41 274.322 163.834 267.561 141.193C267.146 139.771 266.485 138.304 265.296 137.77C264.087 137.341 262.578 137.836 260.406 139.305L216.127 169.412C214.408 170.564 213.539 172.136 213.539 173.76C213.539 175.374 214.408 176.946 216.127 178.078L260.481 208.25ZM250.719 112.433C250.775 111.516 250.21 110.361 248.925 109.096C232.475 91.6978 215.579 81.965 192.404 76.4529C191.107 76.1174 189.596 75.8101 188.595 76.6974C187.555 77.528 187.256 79.1333 187.461 81.5341L191.28 135.142C191.409 137.171 192.319 138.781 193.673 139.597C195.165 140.442 196.939 140.286 198.791 139.393L247.072 116.096C248.621 115.344 250.376 114.523 250.716 112.875C250.719 112.772 250.775 112.64 250.719 112.433ZM44.5615 208.105L65.1066 202.136C67.0326 201.572 68.6187 199.55 68.4668 197.039C61.089 158.769 70.468 127.744 92.901 102.874C95.166 101.26 95.4119 97.9369 93.2408 95.6666L78.305 80.6524C76.8521 78.9911 74.2115 78.9911 71.952 81.3C43.3144 111.432 28.8572 157.675 39.4626 204.95C40.0481 207.217 41.8415 208.884 44.5615 208.105ZM300.02 219.103L279.42 212.068C278.343 211.668 275.531 211.668 274.057 215.293C257.421 255.186 218.693 282.486 173.847 282.486C128.947 282.486 89.5001 254.56 73.5838 214.669C73.226 213.65 72.4869 212.81 71.5221 212.324C70.5572 211.839 69.4417 211.747 68.4102 212.067L47.9231 219.101C45.6933 219.901 44.3592 221.878 45.5235 224.722C65.6528 276.07 115.692 312.321 173.847 312.321C231.987 312.321 282.251 275.821 302.442 224.504C303.495 221.822 302.229 219.904 300.02 219.103ZM276.211 81.0922C274.19 78.6231 270.848 78.9911 269.885 80.7145L254.992 95.6673C252.815 97.9369 253.022 101.261 255.289 102.874C277.759 127.745 287.144 158.704 279.782 197.039C279.611 199.551 281.197 201.571 283.161 202.138L303.744 208.105C306.482 208.884 308.238 207.218 308.822 204.871C319.413 157.675 304.911 111.276 276.211 81.0922ZM348 174.223C348 176.252 347.9 178.292 347.679 179.915L347.623 180.356L347.149 180.595C339.747 185 330.194 187.507 320.602 187.771C320.375 188.984 319.337 197.644 319.157 198.862C328.097 201.439 336.763 206.326 342.806 212.571L343.052 212.957V213.353C342.579 216.763 341.37 221.336 340.03 224.303L339.879 224.771L339.439 224.843C331.056 227.254 321.181 227.165 312.046 224.904C311.606 226.038 308.233 234.084 307.892 235.254C315.897 240.314 322.979 247.271 326.962 254.696L327.17 255.113L327.038 255.547C325.792 258.501 323.451 262.778 321.355 265.345L321.128 265.733H320.599C312.045 265.831 302.487 263.291 294.144 258.646C293.389 259.641 287.82 267.003 287.064 267.99C293.637 274.762 298.616 283.34 300.64 291.804L300.772 292.245L300.522 292.551C298.614 295.141 295.108 298.574 292.56 300.632L292.257 300.89L291.629 300.767C283.402 298.573 274.696 293.593 267.937 287.057C266.936 287.813 260.025 293.206 259.003 293.971C263.422 302.067 266.104 311.379 266.104 319.794V320.965L265.595 321.253C263.046 323.307 258.815 325.755 255.794 326.992L255.492 327.12L254.988 326.955C247.58 322.641 240.481 315.605 235.628 307.537C234.458 308.052 226.055 311.648 224.904 312.154C226.055 316.648 226.735 321.347 226.868 325.993C226.868 330.685 226.055 335.376 224.904 339.615L224.847 340.035L224.394 340.28C221.583 341.45 216.841 342.625 213.536 343.2L213.023 343.271L212.744 342.918C206.364 336.847 201.473 328.215 198.903 319.195C197.77 319.279 189.066 320.459 187.839 320.714C187.688 330.174 185.089 339.764 180.589 347.198L180.343 347.589L179.834 347.656C176.813 348.115 171.965 348.115 168.675 347.656L168.265 347.589L167.975 347.198C163.615 339.763 161.009 330.174 160.801 320.714C159.498 320.588 150.327 319.279 149.055 319.195C146.544 328.158 141.617 336.743 135.403 342.887L135.07 343.201L134.553 343.127C131.156 342.626 126.68 341.314 123.679 340.074L123.319 339.898L123.169 339.515C121.904 335.291 121.247 330.553 121.247 325.856C121.247 321.254 121.905 316.647 123.074 312.153C121.905 311.648 113.973 308.433 112.821 307.919C107.917 316.121 100.83 323.249 93.3527 327.408L92.9556 327.63L92.4833 327.502C89.3869 326.119 85.3078 323.779 82.6644 321.8L82.344 321.478V320.588C82.344 312.067 84.9404 302.689 89.3862 294.485C86.2594 292.093 83.1252 289.711 79.9837 287.339C73.2053 293.871 64.5763 298.793 56.2304 300.933L55.8002 301.064L55.343 300.765C52.7949 298.707 49.5134 295.394 47.4501 292.794L47.1704 292.341L47.2995 291.902C49.5127 283.488 54.5116 274.904 61.0082 268.234C60.2625 267.226 54.6635 259.969 53.8708 258.88C45.6181 263.504 35.9691 266.175 27.4153 265.96H26.9623L26.6599 265.667C24.6593 263.019 22.2721 258.79 20.9774 255.791L20.7888 255.343L20.9774 254.947C25.2884 247.405 32.3258 240.443 40.3692 235.626C39.8458 234.388 36.4228 226.283 35.8379 225.142C26.6999 227.416 16.7678 227.483 8.40738 225.142L8.00548 225.014L7.76103 224.635C6.62716 221.819 5.38694 217.075 4.87663 213.739L4.78755 213.212L5.08517 212.821C11.1703 206.623 19.713 201.719 28.8579 199.011C28.757 197.73 27.4174 188.518 27.2848 187.244C17.7353 187.114 8.13807 184.652 0.680187 180.215L0.302459 179.969L0.264479 179.455C0.0566246 177.907 0 175.883 0 173.829C0 171.828 0.0566246 169.864 0.264479 168.189L0.302459 167.674L0.680187 167.472C8.13945 163.073 17.736 160.525 27.2848 160.383C27.4788 159.122 28.6113 150.163 28.7577 148.955C19.713 146.364 11.0839 141.412 4.95259 135.239L4.70192 134.936L4.78824 134.456C5.17909 131.015 6.47662 126.408 7.76172 123.553L7.89845 123.136L8.34592 123.008C16.6028 120.573 26.586 120.644 35.7626 122.895C36.2715 121.777 39.62 113.7 40.1234 112.488C32.024 107.587 24.9162 100.612 20.6866 93.0829L20.4684 92.6072L20.6866 92.1542C22.0166 89.1334 24.4004 85.0403 26.2828 82.4732L26.5853 82.0851H27.1004C35.7619 81.9629 45.3163 84.606 53.5545 89.1762C54.3245 88.251 59.951 80.6517 60.7106 79.6408C54.1732 72.8259 49.2262 64.2924 47.0924 55.8335L46.9971 55.471L47.1704 55.0974C49.2669 52.4729 52.7376 49.0655 55.2712 47.0631L55.6828 46.8125L56.0605 46.8884C64.5763 49.0648 73.1529 54.1301 79.838 60.6288C80.8158 59.8541 87.5044 54.6949 88.5009 53.9443C83.8936 45.8872 81.3248 36.4975 81.3248 28.1525V26.8986L81.7439 26.601C84.2513 24.6415 88.4995 22.2062 91.5303 20.9751L91.8459 20.7714L92.3514 20.9937C99.8099 25.2084 106.822 32.265 111.726 40.3414C112.897 39.896 121.601 36.1205 122.789 35.6441C121.657 31.1416 120.945 26.4788 121.017 21.8582C121.017 17.0525 121.601 12.4789 122.867 8.25871L122.927 7.73602L123.376 7.61726C126.189 6.44139 130.871 5.18128 134.158 4.67724L134.687 4.60889L135.07 4.94031C141.276 10.9771 146.222 19.6183 148.836 28.7332C150.113 28.6055 159.252 27.4531 160.48 27.2328C160.674 17.8431 163.242 8.25802 167.731 0.80923L167.919 0.417734L168.385 0.289997C171.663 -0.0966657 176.491 -0.0966657 179.663 0.289997L180.08 0.417734L180.344 0.80923C184.857 8.25733 187.464 17.8431 187.464 27.1479C188.841 27.4531 197.773 28.6055 199.044 28.7332C201.721 19.6183 206.629 11.0427 212.88 4.98243L213.164 4.67724L213.579 4.8036C216.978 5.18128 221.586 6.44139 224.545 7.73602L224.908 7.87619L225.06 8.39128C226.329 12.5735 226.946 17.1271 226.946 21.8582C226.872 26.5258 226.191 31.2265 225.06 35.7394C226.192 36.2027 234.878 39.8373 236.087 40.3421C240.902 32.2663 247.832 25.265 255.365 20.9944L255.798 20.7721L256.252 20.9758C259.237 22.2442 263.409 24.6429 265.978 26.6625L266.359 26.9V28.0704C266.359 36.6273 263.712 45.977 259.238 53.9457C260.201 54.6962 267.376 60.3084 268.452 61.1349C275.208 54.5685 283.802 49.5467 292.262 47.4656L292.64 47.2578L293.018 47.6541C295.566 49.5453 299.004 53.1185 300.944 55.6822L301.307 56.0599L301.15 56.4949C299.002 64.9573 293.899 73.5433 287.408 80.265C288.164 81.2993 293.564 88.4119 294.396 89.4365C302.812 84.9091 312.333 82.3178 320.962 82.4738H321.359L321.637 82.855C323.737 85.5319 326.137 89.6865 327.306 92.5361L327.589 93.0836L327.306 93.4993C323.02 100.972 315.977 107.886 307.896 112.818C308.383 114.044 311.672 122.154 312.295 123.289C321.359 121.008 331.327 120.955 339.576 123.289L340.071 123.387L340.26 123.863C341.412 126.732 342.748 131.393 343.186 134.82L343.257 135.239L342.922 135.574C336.862 141.856 328.234 146.771 319.16 149.333C319.34 150.584 320.471 159.434 320.679 160.694C330.233 160.897 339.75 163.451 347.151 167.835L347.626 168.114L347.682 168.561C347.901 170.179 348 172.137 348 174.223ZM86.537 72.7092L100.831 88.6301C102.832 90.7781 105.03 90.5144 107.919 88.2531C125.983 74.0881 149.151 65.7099 173.848 65.7099C198.566 65.7099 221.753 74.0549 239.993 88.2531C242.845 90.3576 244.979 90.7788 247.074 88.6301L261.373 72.7092C262.994 70.9485 262.994 68.5229 259.896 65.926C235.914 47.2592 206.326 35.7408 173.792 35.7408C141.448 35.7408 111.43 47.2599 87.8822 66.0117C84.7996 68.5222 84.9411 70.9485 86.537 72.7092ZM87.5044 139.663C85.9328 138.644 84.2527 137.477 82.8778 138.087C81.7598 138.427 80.9484 139.597 80.3621 141.499C73.6583 164.5 73.6583 183.998 80.3621 206.698C80.8151 208.175 81.3254 209.647 82.6651 210.02C83.77 210.477 85.3886 210.02 87.5038 208.562L131.76 178.418C133.401 177.314 134.403 175.743 134.403 174.166C134.403 172.452 133.401 170.947 131.76 169.791L87.5044 139.663ZM97.1872 113.287C97.3951 114.901 99.2264 115.722 100.831 116.477L149.055 139.9C150.972 140.815 152.757 140.815 154.21 140.06C155.57 139.172 156.444 137.629 156.572 135.576L160.462 82.0865C160.675 79.5062 160.309 77.9892 159.385 77.1966C158.365 76.319 156.854 76.5634 155.4 76.8334C132.288 82.3896 115.446 92.1549 98.8473 109.469C97.5077 110.983 96.8841 112.258 97.1872 113.287ZM97.8854 235.592C97.8854 236.51 98.5083 237.651 99.6794 238.865C116.284 256.329 133.102 266.046 156.194 271.464C157.667 271.914 159.122 272.136 160.142 271.334C161.186 270.556 161.482 268.95 161.312 266.424C161.312 266.346 157.384 212.825 157.384 212.825C157.214 210.796 156.444 209.248 155.024 208.432C153.589 207.586 151.793 207.586 149.869 208.463L101.699 231.907C100.018 232.692 98.1968 233.575 97.942 235.153C97.942 235.253 97.8854 235.457 97.8854 235.592ZM173.847 208.638C192.919 208.638 208.417 193.159 208.417 174.096C208.417 155.033 192.92 139.536 173.847 139.467C154.784 139.467 139.293 155.033 139.293 174.096C139.293 193.159 154.784 208.638 173.847 208.638ZM188.464 270.556C189.276 271.197 190.615 271.385 192.674 270.872C215.71 265.343 232.611 255.583 249.075 238.308C250.059 237.172 251.13 236.001 250.809 234.701C250.51 233.455 249.454 232.327 247.207 231.27L198.905 207.835C197.074 206.97 195.298 206.97 193.827 207.741C192.404 208.638 191.543 210.157 191.411 212.276L187.502 265.731C187.463 267.482 187.256 269.479 188.464 270.556ZM260.481 208.25C261.911 209.181 263.577 210.307 265.089 209.785C266.108 209.474 266.996 208.349 267.561 206.325C274.322 183.41 274.322 163.834 267.561 141.193C267.146 139.771 266.485 138.304 265.296 137.77C264.087 137.341 262.578 137.836 260.406 139.305L216.127 169.412C214.408 170.564 213.539 172.136 213.539 173.76C213.539 175.374 214.408 176.946 216.127 178.078L260.481 208.25ZM250.719 112.433C250.775 111.516 250.21 110.361 248.925 109.096C232.475 91.6978 215.579 81.965 192.404 76.4529C191.107 76.1174 189.596 75.8101 188.595 76.6974C187.555 77.528 187.256 79.1333 187.461 81.5341L191.28 135.142C191.409 137.171 192.319 138.781 193.673 139.597C195.165 140.442 196.939 140.286 198.791 139.393L247.072 116.096C248.621 115.344 250.376 114.523 250.716 112.875C250.719 112.772 250.775 112.64 250.719 112.433ZM44.5615 208.105L65.1066 202.136C67.0326 201.572 68.6187 199.55 68.4668 197.039C61.089 158.769 70.468 127.744 92.901 102.874C95.166 101.26 95.4119 97.9369 93.2408 95.6666L78.305 80.6524C76.8521 78.9911 74.2115 78.9911 71.952 81.3C43.3144 111.432 28.8572 157.675 39.4626 204.95C40.0481 207.217 41.8415 208.884 44.5615 208.105ZM300.02 219.103L279.42 212.068C278.343 211.668 275.531 211.668 274.057 215.293C257.421 255.186 218.693 282.486 173.847 282.486C128.947 282.486 89.5001 254.56 73.5838 214.669C73.226 213.65 72.4869 212.81 71.5221 212.324C70.5572 211.839 69.4417 211.747 68.4102 212.067L47.9231 219.101C45.6933 219.901 44.3592 221.878 45.5235 224.722C65.6528 276.07 115.692 312.321 173.847 312.321C231.987 312.321 282.251 275.821 302.442 224.504C303.495 221.822 302.229 219.904 300.02 219.103ZM276.211 81.0922C274.19 78.6231 270.848 78.9911 269.885 80.7145L254.992 95.6673C252.815 97.9369 253.022 101.261 255.289 102.874C277.759 127.745 287.144 158.704 279.782 197.039C279.611 199.551 281.197 201.571 283.161 202.138L303.744 208.105C306.482 208.884 308.238 207.218 308.822 204.871C319.413 157.675 304.911 111.276 276.211 81.0922ZM348 174.223C348 176.252 347.9 178.292 347.679 179.915L347.623 180.356L347.149 180.595C339.747 185 330.194 187.507 320.602 187.771C320.375 188.984 319.337 197.644 319.157 198.862C328.097 201.439 336.763 206.326 342.806 212.571L343.052 212.957V213.353C342.579 216.763 341.37 221.336 340.03 224.303L339.879 224.771L339.439 224.843C331.056 227.254 321.181 227.165 312.046 224.904C311.606 226.038 308.233 234.084 307.892 235.254C315.897 240.314 322.979 247.271 326.962 254.696L327.17 255.113L327.038 255.547C325.792 258.501 323.451 262.778 321.355 265.345L321.128 265.733H320.599C312.045 265.831 302.487 263.291 294.144 258.646C293.389 259.641 287.82 267.003 287.064 267.99C293.637 274.762 298.616 283.34 300.64 291.804L300.772 292.245L300.522 292.551C298.614 295.141 295.108 298.574 292.56 300.632L292.257 300.89L291.629 300.767C283.402 298.573 274.696 293.593 267.937 287.057C266.936 287.813 260.025 293.206 259.003 293.971C263.422 302.067 266.104 311.379 266.104 319.794V320.965L265.595 321.253C263.046 323.307 258.815 325.755 255.794 326.992L255.492 327.12L254.988 326.955C247.58 322.641 240.481 315.605 235.628 307.537C234.458 308.052 226.055 311.648 224.904 312.154C226.055 316.648 226.735 321.347 226.868 325.993C226.868 330.685 226.055 335.376 224.904 339.615L224.847 340.035L224.394 340.28C221.583 341.45 216.841 342.625 213.536 343.2L213.023 343.271L212.744 342.918C206.364 336.847 201.473 328.215 198.903 319.195C197.77 319.279 189.066 320.459 187.839 320.714C187.688 330.174 185.089 339.764 180.589 347.198L180.343 347.589L179.834 347.656C176.813 348.115 171.965 348.115 168.675 347.656L168.265 347.589L167.975 347.198C163.615 339.763 161.009 330.174 160.801 320.714C159.498 320.588 150.327 319.279 149.055 319.195C146.544 328.158 141.617 336.743 135.403 342.887L135.07 343.201L134.553 343.127C131.156 342.626 126.68 341.314 123.679 340.074L123.319 339.898L123.169 339.515C121.904 335.291 121.247 330.553 121.247 325.856C121.247 321.254 121.905 316.647 123.074 312.153C121.905 311.648 113.973 308.433 112.821 307.919C107.917 316.121 100.83 323.249 93.3527 327.408L92.9556 327.63L92.4833 327.502C89.3869 326.119 85.3078 323.779 82.6644 321.8L82.344 321.478V320.588C82.344 312.067 84.9404 302.689 89.3862 294.485C86.2594 292.093 83.1252 289.711 79.9837 287.339C73.2053 293.871 64.5763 298.793 56.2304 300.933L55.8002 301.064L55.343 300.765C52.7949 298.707 49.5134 295.394 47.4501 292.794L47.1704 292.341L47.2995 291.902C49.5127 283.488 54.5116 274.904 61.0082 268.234C60.2625 267.226 54.6635 259.969 53.8708 258.88C45.6181 263.504 35.9691 266.175 27.4153 265.96H26.9623L26.6599 265.667C24.6593 263.019 22.2721 258.79 20.9774 255.791L20.7888 255.343L20.9774 254.947C25.2884 247.405 32.3258 240.443 40.3692 235.626C39.8458 234.388 36.4228 226.283 35.8379 225.142C26.6999 227.416 16.7678 227.483 8.40738 225.142L8.00548 225.014L7.76103 224.635C6.62716 221.819 5.38694 217.075 4.87663 213.739L4.78755 213.212L5.08517 212.821C11.1703 206.623 19.713 201.719 28.8579 199.011C28.757 197.73 27.4174 188.518 27.2848 187.244C17.7353 187.114 8.13807 184.652 0.680187 180.215L0.302459 179.969L0.264479 179.455C0.0566246 177.907 0 175.883 0 173.829C0 171.828 0.0566246 169.864 0.264479 168.189L0.302459 167.674L0.680187 167.472C8.13945 163.073 17.736 160.525 27.2848 160.383C27.4788 159.122 28.6113 150.163 28.7577 148.955C19.713 146.364 11.0839 141.412 4.95259 135.239L4.70192 134.936L4.78824 134.456C5.17909 131.015 6.47662 126.408 7.76172 123.553L7.89845 123.136L8.34592 123.008C16.6028 120.573 26.586 120.644 35.7626 122.895C36.2715 121.777 39.62 113.7 40.1234 112.488C32.024 107.587 24.9162 100.612 20.6866 93.0829L20.4684 92.6072L20.6866 92.1542C22.0166 89.1334 24.4004 85.0403 26.2828 82.4732L26.5853 82.0851H27.1004C35.7619 81.9629 45.3163 84.606 53.5545 89.1762C54.3245 88.251 59.951 80.6517 60.7106 79.6408C54.1732 72.8259 49.2262 64.2924 47.0924 55.8335L46.9971 55.471L47.1704 55.0974C49.2669 52.4729 52.7376 49.0655 55.2712 47.0631L55.6828 46.8125L56.0605 46.8884C64.5763 49.0648 73.1529 54.1301 79.838 60.6288C80.8158 59.8541 87.5044 54.6949 88.5009 53.9443C83.8936 45.8872 81.3248 36.4975 81.3248 28.1525V26.8986L81.7439 26.601C84.2513 24.6415 88.4995 22.2062 91.5303 20.9751L91.8459 20.7714L92.3514 20.9937C99.8099 25.2084 106.822 32.265 111.726 40.3414C112.897 39.896 121.601 36.1205 122.789 35.6441C121.657 31.1416 120.945 26.4788 121.017 21.8582C121.017 17.0525 121.601 12.4789 122.867 8.25871L122.927 7.73602L123.376 7.61726C126.189 6.44139 130.871 5.18128 134.158 4.67724L134.687 4.60889L135.07 4.94031C141.276 10.9771 146.222 19.6183 148.836 28.7332C150.113 28.6055 159.252 27.4531 160.48 27.2328C160.674 17.8431 163.242 8.25802 167.731 0.80923L167.919 0.417734L168.385 0.289997C171.663 -0.0966657 176.491 -0.0966657 179.663 0.289997L180.08 0.417734L180.344 0.80923C184.857 8.25733 187.464 17.8431 187.464 27.1479C188.841 27.4531 197.773 28.6055 199.044 28.7332C201.721 19.6183 206.629 11.0427 212.88 4.98243L213.164 4.67724L213.579 4.8036C216.978 5.18128 221.586 6.44139 224.545 7.73602L224.908 7.87619L225.06 8.39128C226.329 12.5735 226.946 17.1271 226.946 21.8582C226.872 26.5258 226.191 31.2265 225.06 35.7394C226.192 36.2027 234.878 39.8373 236.087 40.3421C240.902 32.2663 247.832 25.265 255.365 20.9944L255.798 20.7721L256.252 20.9758C259.237 22.2442 263.409 24.6429 265.978 26.6625L266.359 26.9V28.0704C266.359 36.6273 263.712 45.977 259.238 53.9457C260.201 54.6962 267.376 60.3084 268.452 61.1349C275.208 54.5685 283.802 49.5467 292.262 47.4656L292.64 47.2578L293.018 47.6541C295.566 49.5453 299.004 53.1185 300.944 55.6822L301.307 56.0599L301.15 56.4949C299.002 64.9573 293.899 73.5433 287.408 80.265C288.164 81.2993 293.564 88.4119 294.396 89.4365C302.812 84.9091 312.333 82.3178 320.962 82.4738H321.359L321.637 82.855C323.737 85.5319 326.137 89.6865 327.306 92.5361L327.589 93.0836L327.306 93.4993C323.02 100.972 315.977 107.886 307.896 112.818C308.383 114.044 311.672 122.154 312.295 123.289C321.359 121.008 331.327 120.955 339.576 123.289L340.071 123.387L340.26 123.863C341.412 126.732 342.748 131.393 343.186 134.82L343.257 135.239L342.922 135.574C336.862 141.856 328.234 146.771 319.16 149.333C319.34 150.584 320.471 159.434 320.679 160.694C330.233 160.897 339.75 163.451 347.151 167.835L347.626 168.114L347.682 168.561C347.901 170.179 348 172.137 348 174.223ZM86.537 72.7092L100.831 88.6301C102.832 90.7781 105.03 90.5144 107.919 88.2531C125.983 74.0881 149.151 65.7099 173.848 65.7099C198.566 65.7099 221.753 74.0549 239.993 88.2531C242.845 90.3576 244.979 90.7788 247.074 88.6301L261.373 72.7092C262.994 70.9485 262.994 68.5229 259.896 65.926C235.914 47.2592 206.326 35.7408 173.792 35.7408C141.448 35.7408 111.43 47.2599 87.8822 66.0117C84.7996 68.5222 84.9411 70.9485 86.537 72.7092ZM87.5044 139.663C85.9328 138.644 84.2527 137.477 82.8778 138.087C81.7598 138.427 80.9484 139.597 80.3621 141.499C73.6583 164.5 73.6583 183.998 80.3621 206.698C80.8151 208.175 81.3254 209.647 82.6651 210.02C83.77 210.477 85.3886 210.02 87.5038 208.562L131.76 178.418C133.401 177.314 134.403 175.743 134.403 174.166C134.403 172.452 133.401 170.947 131.76 169.791L87.5044 139.663ZM97.1872 113.287C97.3951 114.901 99.2264 115.722 100.831 116.477L149.055 139.9C150.972 140.815 152.757 140.815 154.21 140.06C155.57 139.172 156.444 137.629 156.572 135.576L160.462 82.0865C160.675 79.5062 160.309 77.9892 159.385 77.1966C158.365 76.319 156.854 76.5634 155.4 76.8334C132.288 82.3896 115.446 92.1549 98.8473 109.469C97.5077 110.983 96.8841 112.258 97.1872 113.287ZM97.8854 235.592C97.8854 236.51 98.5083 237.651 99.6794 238.865C116.284 256.329 133.102 266.046 156.194 271.464C157.667 271.914 159.122 272.136 160.142 271.334C161.186 270.556 161.482 268.95 161.312 266.424C161.312 266.346 157.384 212.825 157.384 212.825C157.214 210.796 156.444 209.248 155.024 208.432C153.589 207.586 151.793 207.586 149.869 208.463L101.699 231.907C100.018 232.692 98.1968 233.575 97.942 235.153C97.942 235.253 97.8854 235.457 97.8854 235.592ZM173.847 208.638C192.919 208.638 208.417 193.159 208.417 174.096C208.417 155.033 192.92 139.536 173.847 139.467C154.784 139.467 139.293 155.033 139.293 174.096C139.293 193.159 154.784 208.638 173.847 208.638ZM188.464 270.556C189.276 271.197 190.615 271.385 192.674 270.872C215.71 265.343 232.611 255.583 249.075 238.308C250.059 237.172 251.13 236.001 250.809 234.701C250.51 233.455 249.454 232.327 247.207 231.27L198.905 207.835C197.074 206.97 195.298 206.97 193.827 207.741C192.404 208.638 191.543 210.157 191.411 212.276L187.502 265.731C187.463 267.482 187.256 269.479 188.464 270.556ZM260.481 208.25C261.911 209.181 263.577 210.307 265.089 209.785C266.108 209.474 266.996 208.349 267.561 206.325C274.322 183.41 274.322 163.834 267.561 141.193C267.146 139.771 266.485 138.304 265.296 137.77C264.087 137.341 262.578 137.836 260.406 139.305L216.127 169.412C214.408 170.564 213.539 172.136 213.539 173.76C213.539 175.374 214.408 176.946 216.127 178.078L260.481 208.25ZM250.719 112.433C250.775 111.516 250.21 110.361 248.925 109.096C232.475 91.6978 215.579 81.965 192.404 76.4529C191.107 76.1174 189.596 75.8101 188.595 76.6974C187.555 77.528 187.256 79.1333 187.461 81.5341L191.28 135.142C191.409 137.171 192.319 138.781 193.673 139.597C195.165 140.442 196.939 140.286 198.791 139.393L247.072 116.096C248.621 115.344 250.376 114.523 250.716 112.875C250.719 112.772 250.775 112.64 250.719 112.433ZM44.5615 208.105L65.1066 202.136C67.0326 201.572 68.6187 199.55 68.4668 197.039C61.089 158.769 70.468 127.744 92.901 102.874C95.166 101.26 95.4119 97.9369 93.2408 95.6666L78.305 80.6524C76.8521 78.9911 74.2115 78.9911 71.952 81.3C43.3144 111.432 28.8572 157.675 39.4626 204.95C40.0481 207.217 41.8415 208.884 44.5615 208.105ZM300.02 219.103L279.42 212.068C278.343 211.668 275.531 211.668 274.057 215.293C257.421 255.186 218.693 282.486 173.847 282.486C128.947 282.486 89.5001 254.56 73.5838 214.669C73.226 213.65 72.4869 212.81 71.5221 212.324C70.5572 211.839 69.4417 211.747 68.4102 212.067L47.9231 219.101C45.6933 219.901 44.3592 221.878 45.5235 224.722C65.6528 276.07 115.692 312.321 173.847 312.321C231.987 312.321 282.251 275.821 302.442 224.504C303.495 221.822 302.229 219.904 300.02 219.103ZM276.211 81.0922C274.19 78.6231 270.848 78.9911 269.885 80.7145L254.992 95.6673C252.815 97.9369 253.022 101.261 255.289 102.874C277.759 127.745 287.144 158.704 279.782 197.039C279.611 199.551 281.197 201.571 283.161 202.138L303.744 208.105C306.482 208.884 308.238 207.218 308.822 204.871C319.413 157.675 304.911 111.276 276.211 81.0922ZM228.249 75.5118L232.987 66.3845L245.772 60.4416C244.431 59.4791 242.976 58.8032 241.622 57.9159L232.817 61.9289L231.192 52.3638C229.347 51.4911 228.248 51.1106 226.327 50.3352L228.89 64.2441L224.15 73.2609L228.249 75.5118ZM204.287 282.522C197.906 283.918 192.994 285.077 186.669 286.062L187.256 289.734C189.597 289.364 191.74 289.086 194.205 288.776L197.396 306.47L202.093 305.583L198.283 287.939C200.699 287.34 202.928 286.731 205.325 286.169L204.287 282.522ZM141.618 285.617V286.811C141.276 289.732 139.294 292.701 136.085 293.073L136.826 303.278C135.338 302.938 133.649 302.443 132.058 301.766L131.893 292.167L127.575 290.323L124.076 298.795C122.66 298.328 121.248 297.876 119.866 297.197L124.303 286.887L124.832 285.617L128.44 277.11L138.258 280.9C140.441 281.678 141.448 283.624 141.618 285.617ZM137.5 285.617C137.369 285.001 137.124 284.511 136.367 284.166L130.872 282.141L129.626 285.616L129.191 286.885L129.155 286.965L134.158 288.839C135.536 289.448 136.857 288.226 137.336 286.885C137.5 286.518 137.637 286.062 137.5 285.617ZM204.155 65.3916C202.399 64.882 201.098 64.6666 199.169 64.1191L202.724 51.9792L205.325 43.3263C209.083 44.2605 212.651 45.4792 216.221 46.6385C218.24 47.2585 219.316 49.5474 219.523 51.9786C219.655 55.2866 218.013 58.8777 214.675 59.629L215.973 69.4088C214.405 68.7625 213.253 68.2757 211.518 67.5921L210.383 59.0434L206.193 57.7606L204.155 65.3916ZM207.157 53.9464L212.066 55.5283C213.406 55.9108 215.181 53.8111 215.181 51.9786C215.181 51.1099 214.879 50.3359 213.71 50.0756C211.895 49.3762 210.65 49.0655 208.673 48.5649L207.665 51.9779L207.157 53.9464ZM183.346 296.029L188.086 307.537C186.537 307.603 185.089 307.756 183.705 307.919L182.238 304.2L172.753 304.465L171.663 308.354C170.187 308.23 168.707 308.171 167.226 308.178L171.318 296.029L174.231 286.811L174.375 286.517L179.21 286.301L179.455 286.887L183.346 296.029ZM180.476 300.217L178.772 296.031L177.06 291.5L175.568 296.031L174.095 300.494L180.476 300.217ZM209.479 280.67L216.73 301.38C218.147 300.89 219.657 300.462 221.092 299.84L214.05 279.221C212.119 279.878 211.236 280.142 209.479 280.67ZM104.178 62.2445L102.964 60.0633C106.157 58.0395 109.594 56.2836 112.899 54.5126C116.796 52.3645 122.291 57.5714 121.905 62.2438C121.829 63.064 121.603 63.816 121.11 64.5713L129.08 70.3678C127.575 71.0714 126.437 71.6707 124.649 72.4489L117.676 67.3512L113.824 69.4088L117.922 76.1864C116.335 77.1966 115.373 77.8249 113.522 78.9055L104.178 62.2445ZM108.989 61.2157L109.594 62.2445L111.808 66.0773L116.411 63.6606C116.844 63.4473 117.089 62.9108 117.165 62.2445C117.26 60.1675 115.755 57.3546 113.578 58.6664C111.878 59.5537 110.839 60.1675 108.989 61.2157Z" fill="#FEBD11"/>
</svg>
